<?xml version="1.0" standalone="no"?>
<!DOCTYPE svg PUBLIC "-//W3C//DTD SVG 1.1//EN"
  "http://www.w3.org/Graphics/SVG/1.1/DTD/svg11.dtd">
<!-- Created with matplotlib (http://matplotlib.sourceforge.net/) -->
<svg width="1440pt" height="720pt" viewBox="0 0 1440 720"
   xmlns="http://www.w3.org/2000/svg"
   xmlns:xlink="http://www.w3.org/1999/xlink"
   version="1.1"
   id="svg1">
<g id="figure1">
<g id="patch1">
<path style="fill: #ffffff; stroke: #ffffff; stroke-width: 1.000000; stroke-linejoin: round; stroke-linecap: square;  opacity: 1.000000"  d="M0.000000 720.000000L1440.000000 720.000000L1440.000000 0.000000
L0.000000 0.000000L0.000000 720.000000"/>
</g>
<g id="axes1">
<g id="patch2">
<path style="fill: #ffffff; opacity: 1.000000"  d="M180.000000 648.000000L1296.000000 648.000000L1296.000000 72.000000
L180.000000 72.000000L180.000000 648.000000"/>
</g>
<g id="line2d1">
<defs>
  <clipPath id="pfdf41017d77cccd2c2c141d56d1459a5">
<rect x="180.000000" y="72.000000" width="1116.000000" height="576.000000"/>
  </clipPath>
</defs><path style="fill: none; stroke: #ff0000; stroke-width: 1.000000; stroke-linejoin: round; stroke-linecap: square;  opacity: 1.000000" clip-path="url(#pfdf41017d77cccd2c2c141d56d1459a5)" d="M180.000000 642.240000L181.863105 648.000000L185.589316 637.056000
L187.452421 642.240000L189.315526 642.240000L191.178631 636.480000
L193.041736 648.000000L194.904841 648.000000L196.767947 134.784000
L198.631052 297.792000L200.494157 357.120000L202.357262 354.240000
L204.220367 357.120000L206.083472 348.480000L207.946578 357.120000
L209.809683 630.144000L211.672788 642.240000L213.535893 642.240000
L215.398998 648.000000L217.262104 642.240000L219.125209 648.000000
L220.988314 637.056000L222.851419 648.000000L224.714524 636.480000
L228.440735 648.000000L230.303840 642.240000L232.166945 648.000000
L234.030050 642.816000L235.893155 642.240000L237.756260 642.240000
L239.619366 648.000000L241.482471 637.056000L243.345576 648.000000
L247.071786 636.480000L248.934891 642.240000L250.797997 642.240000
L252.661102 648.000000L254.524207 642.240000L258.250417 642.240000
L260.113523 648.000000L261.976628 642.240000L263.839733 648.000000
L265.702838 642.240000L267.565943 648.000000L275.018364 648.000000
L276.881469 642.240000L278.744574 648.000000L280.607679 642.240000
L286.196995 642.240000L288.060100 648.000000L293.649416 648.000000
L295.512521 642.240000L297.375626 642.240000L299.238731 648.000000
L301.101836 642.240000L302.964942 642.240000L304.828047 648.000000
L306.691152 635.904000L310.417362 648.000000L314.143573 648.000000
L316.006678 642.240000L317.869783 648.000000L319.732888 642.240000
L321.595993 631.296000L325.322204 642.240000L334.637730 642.240000
L336.500835 648.000000L338.363940 637.056000L340.227045 642.240000
L342.090150 642.240000L343.953255 648.000000L345.816361 642.240000
L347.679466 648.000000L349.542571 641.664000L351.405676 648.000000
L353.268781 636.480000L355.131886 648.000000L360.721202 648.000000
L364.447412 637.056000L366.310518 648.000000L368.173623 642.240000
L370.036728 648.000000L371.899833 642.240000L373.762938 648.000000
L377.489149 323.712000L379.352254 296.640000L381.215359 133.056000
L383.078464 258.624000L384.941569 195.264000L386.804674 72.000000
L388.667780 88.704000L390.530885 329.472000L392.393990 320.256000
L394.257095 237.888000L396.120200 234.432000L397.983306 262.080000
L399.846411 192.960000L401.709516 321.408000L403.572621 189.504000
L405.435726 234.432000L407.298831 243.648000L409.161937 305.856000
L412.888147 72.000000L414.751252 326.016000L416.614357 340.416000
L420.340568 273.600000L422.203673 213.120000L424.066778 275.328000
L425.929883 275.328000L427.792988 100.224000L429.656093 72.000000
L435.245409 72.000000L437.108514 254.592000L438.971619 357.120000
L440.834725 360.000000L442.697830 365.760000L444.560935 474.624000
L446.424040 637.056000L448.287145 648.000000L452.013356 648.000000
L453.876461 580.032000L455.739566 642.240000L457.602671 648.000000
L459.465776 642.240000L461.328881 642.240000L463.191987 648.000000
L465.055092 642.240000L466.918197 642.240000L468.781302 648.000000
L474.370618 648.000000L476.233723 642.240000L478.096828 648.000000
L485.549249 648.000000L487.412354 545.472000L489.275459 334.080000
L491.138564 329.472000L493.001669 214.848000L494.864775 286.848000
L496.727880 250.560000L498.590985 287.424000L500.454090 365.760000
L502.317195 194.112000L504.180301 343.296000L506.043406 317.376000
L507.906511 72.000000L509.769616 72.000000L511.632721 354.240000
L513.495826 362.880000L515.358932 362.880000L517.222037 351.360000
L519.085142 648.000000L520.948247 642.240000L522.811352 642.240000
L524.674457 648.000000L526.537563 648.000000L528.400668 642.240000
L530.263773 648.000000L532.126878 648.000000L533.989983 642.240000
L535.853088 642.240000L537.716194 648.000000L539.579299 648.000000
L541.442404 642.240000L543.305509 648.000000L545.168614 603.072000
L547.031720 648.000000L550.757930 637.056000L552.621035 637.056000
L554.484140 642.240000L556.347245 637.056000L558.210351 648.000000
L560.073456 642.240000L565.662771 642.240000L567.525876 637.056000
L569.388982 642.240000L574.978297 642.240000L576.841402 637.056000
L578.704508 648.000000L580.567613 637.056000L582.430718 642.240000
L584.293823 637.056000L586.156928 642.240000L588.020033 636.480000
L589.883139 636.480000L591.746244 642.240000L593.609349 642.240000
L595.472454 637.056000L597.335559 648.000000L599.198664 636.480000
L601.061770 642.240000L604.787980 642.240000L606.651085 637.056000
L608.514190 642.240000L615.966611 642.240000L617.829716 631.296000
L619.692821 642.240000L621.555927 648.000000L623.419032 642.240000
L625.282137 642.240000L627.145242 636.480000L629.008347 635.904000
L630.871452 648.000000L634.597663 648.000000L636.460768 637.056000
L638.323873 642.240000L649.502504 642.240000L651.365609 631.296000
L653.228715 635.904000L655.091820 642.240000L660.681135 642.240000
L662.544240 636.480000L664.407346 636.480000L668.133556 648.000000
L669.996661 642.240000L671.859766 642.240000L673.722871 637.056000
L675.585977 614.592000L677.449082 642.240000L679.312187 642.240000
L681.175292 648.000000L683.038397 648.000000L684.901503 642.240000
L696.080134 642.240000L697.943239 637.056000L699.806344 637.056000
L703.532554 648.000000L705.395659 630.720000L707.258765 648.000000
L709.121870 642.240000L710.984975 642.240000L712.848080 636.480000
L716.574290 648.000000L718.437396 636.480000L720.300501 642.240000
L722.163606 642.240000L724.026711 648.000000L725.889816 636.480000
L727.752922 642.240000L729.616027 625.536000L731.479132 648.000000
L733.342237 631.296000L735.205342 642.240000L737.068447 642.240000
L738.931553 509.760000L740.794658 648.000000L742.657763 648.000000
L748.247078 630.144000L750.110184 641.664000L751.973289 648.000000
L753.836394 648.000000L755.699499 636.480000L759.425710 636.480000
L761.288815 635.904000L763.151920 636.480000L765.015025 642.240000
L766.878130 642.240000L768.741235 648.000000L770.604341 642.240000
L772.467446 642.240000L774.330551 636.480000L776.193656 648.000000
L778.056761 636.480000L779.919866 636.480000L781.782972 637.056000
L783.646077 642.240000L785.509182 642.240000L787.372287 630.720000
L789.235392 642.240000L796.687813 642.240000L798.550918 636.480000
L800.414023 642.240000L802.277129 642.240000L804.140234 637.056000
L806.003339 642.240000L807.866444 636.480000L809.729549 648.000000
L811.592654 641.664000L813.455760 642.240000L815.318865 648.000000
L817.181970 641.664000L819.045075 642.240000L820.908180 642.240000
L822.771285 635.904000L824.634391 642.240000L826.497496 637.056000
L828.360601 636.480000L830.223706 636.480000L832.086811 642.240000
L845.128548 642.240000L846.991653 648.000000L848.854758 637.056000
L850.717863 648.000000L852.580968 636.480000L854.444073 642.240000
L856.307179 637.056000L858.170284 642.240000L860.033389 642.240000
L861.896494 648.000000L863.759599 648.000000L865.622705 642.240000
L867.485810 648.000000L869.348915 636.480000L871.212020 636.480000
L873.075125 648.000000L874.938230 642.240000L878.664441 642.240000
L880.527546 648.000000L882.390651 642.240000L884.253756 642.240000
L886.116861 637.056000L887.979967 637.056000L889.843072 642.240000
L893.569282 642.240000L895.432387 648.000000L897.295492 631.296000
L899.158598 636.480000L901.021703 648.000000L902.884808 642.240000
L904.747913 642.240000L906.611018 648.000000L908.474124 648.000000
L910.337229 631.296000L912.200334 642.240000L914.063439 642.240000
L915.926544 648.000000L917.789649 648.000000L919.652755 642.240000
L921.515860 648.000000L923.378965 636.480000L927.105175 636.480000
L928.968280 642.240000L930.831386 642.240000L932.694491 648.000000
L934.557596 637.056000L936.420701 642.240000L938.283806 631.296000
L940.146912 637.056000L942.010017 648.000000L943.873122 648.000000
L945.736227 636.480000L947.599332 648.000000L951.325543 637.056000
L953.188648 642.240000L955.051753 637.056000L956.914858 642.240000
L962.504174 642.240000L964.367279 636.480000L966.230384 642.240000
L968.093489 642.240000L969.956594 648.000000L971.819699 642.240000
L973.682805 648.000000L975.545910 636.480000L977.409015 648.000000
L979.272120 636.480000L982.998331 648.000000L984.861436 648.000000
L988.587646 637.056000L992.313856 648.000000L994.176962 642.240000
L996.040067 642.816000L997.903172 648.000000L999.766277 642.240000
L1001.629382 642.240000L1003.492487 648.000000L1005.355593 636.480000
L1007.218698 648.000000L1014.671119 648.000000L1016.534224 636.480000
L1018.397329 648.000000L1020.260434 648.000000L1022.123539 642.240000
L1023.986644 624.384000L1025.849750 648.000000L1027.712855 636.480000
L1029.575960 637.056000L1031.439065 642.240000L1035.165275 631.296000
L1037.028381 642.240000L1042.617696 642.240000L1044.480801 637.056000
L1046.343907 642.240000L1050.070117 642.240000L1051.933222 648.000000
L1053.796327 648.000000L1055.659432 642.240000L1059.385643 642.240000
L1061.248748 631.296000L1063.111853 648.000000L1064.974958 626.688000
L1066.838063 648.000000L1070.564274 636.480000L1072.427379 637.056000
L1074.290484 648.000000L1076.153589 573.696000L1078.016694 636.480000
L1079.879800 637.056000L1081.742905 635.904000L1083.606010 637.056000
L1085.469115 648.000000L1087.332220 631.296000L1089.195326 642.240000
L1091.058431 648.000000L1094.784641 636.480000L1096.647746 642.240000
L1098.510851 631.296000L1100.373957 648.000000L1102.237062 631.296000
L1104.100167 642.240000L1105.963272 648.000000L1111.552588 648.000000
L1113.415693 631.296000L1115.278798 648.000000L1117.141903 636.480000
L1119.005008 636.480000L1120.868114 637.056000L1122.731219 648.000000
L1124.594324 625.536000L1126.457429 648.000000L1128.320534 642.240000
L1130.183639 648.000000L1132.046745 642.240000L1133.909850 642.240000
L1135.772955 630.144000L1139.499165 642.240000L1143.225376 642.240000
L1145.088481 648.000000L1146.951586 642.240000L1148.814691 642.240000
L1150.677796 648.000000L1152.540902 641.664000L1154.404007 642.240000
L1156.267112 648.000000L1159.993322 648.000000L1161.856427 637.056000
L1163.719533 648.000000L1167.445743 636.480000L1171.171953 648.000000
L1174.898164 637.056000L1176.761269 642.240000L1180.487479 642.240000
L1182.350584 648.000000L1184.213689 642.240000L1186.076795 642.816000
L1187.939900 637.056000L1191.666110 648.000000L1193.529215 635.904000
L1195.392321 648.000000L1197.255426 648.000000L1199.118531 636.480000
L1200.981636 637.632000L1202.844741 637.056000L1206.570952 648.000000
L1210.297162 636.480000L1212.160267 642.240000L1214.023372 642.816000
L1215.886477 642.240000L1217.749583 642.240000L1219.612688 648.000000
L1221.475793 636.480000L1225.202003 648.000000L1227.065109 635.904000
L1228.928214 648.000000L1230.791319 648.000000L1232.654424 642.240000
L1234.517529 648.000000L1236.380634 648.000000L1238.243740 637.056000
L1240.106845 648.000000L1241.969950 648.000000L1243.833055 637.056000
L1247.559265 648.000000L1249.422371 636.480000L1251.285476 648.000000
L1255.011686 637.056000L1256.874791 648.000000L1260.601002 637.056000
L1262.464107 648.000000L1264.327212 642.240000L1266.190317 642.240000
L1268.053422 648.000000L1269.916528 648.000000L1271.779633 637.056000
L1273.642738 648.000000L1275.505843 642.240000L1277.368948 631.296000
L1279.232053 648.000000L1281.095159 648.000000L1282.958264 631.296000
L1284.821369 642.240000L1288.547579 642.240000L1290.410684 648.000000
L1292.273790 631.296000L1294.136895 648.000000L1296.000000 648.000000
L1296.000000 648.000000"/>
</g>
<g id="line2d2">
<path style="fill: none; stroke: #0000ff; stroke-width: 1.000000; stroke-linejoin: round; stroke-linecap: square;  opacity: 1.000000" clip-path="url(#pfdf41017d77cccd2c2c141d56d1459a5)" d="M180.000000 616.320000L220.988314 616.320000L222.851419 615.744000
L230.303840 615.744000L232.166945 616.320000L239.619366 616.320000
L241.482471 615.744000L261.976628 615.744000L263.839733 616.320000
L282.470785 616.320000L284.333890 615.744000L375.626043 615.744000
L379.352254 613.440000L381.215359 613.440000L383.078464 612.864000
L384.941569 612.864000L386.804674 613.440000L388.667780 612.864000
L396.120200 612.864000L397.983306 612.288000L401.709516 612.288000
L403.572621 611.712000L405.435726 612.288000L407.298831 612.288000
L412.888147 610.560000L414.751252 611.136000L416.614357 610.560000
L422.203673 610.560000L424.066778 611.712000L435.245409 611.712000
L437.108514 611.136000L438.971619 611.136000L440.834725 611.712000
L442.697830 611.712000L444.560935 612.288000L487.412354 612.288000
L489.275459 614.016000L491.138564 614.016000L493.001669 612.864000
L494.864775 612.864000L496.727880 612.288000L498.590985 612.864000
L513.495826 612.864000L515.358932 614.016000L517.222037 613.440000
L519.085142 614.016000L524.674457 614.016000L526.537563 615.168000
L532.126878 615.168000L533.989983 614.016000L738.931553 614.016000
L740.794658 614.592000L1076.153589 614.592000L1078.016694 614.016000
L1117.141903 614.016000L1119.005008 615.168000L1296.000000 615.168000
L1296.000000 615.168000"/>
</g>
<g id="line2d3">
<path style="fill: none; stroke: #008000; stroke-width: 1.000000; stroke-linejoin: round; stroke-linecap: square;  opacity: 1.000000" clip-path="url(#pfdf41017d77cccd2c2c141d56d1459a5)" d="M180.000000 648.000000L1296.000000 648.000000L1296.000000 648.000000"/>
</g>
<g id="matplotlib.axis1">
<g id="xtick1">
<g id="line2d4">
<defs><path id="m30e32995789d870ad79a2e54c91cf9c6" d="M0.000000 0.000000L0.000000 -4.000000"/></defs>
<g ><use style="fill: none; stroke: #000000; stroke-width: 0.500000; stroke-linejoin: round; stroke-linecap: butt;  opacity: 1.000000" xlink:href="#m30e32995789d870ad79a2e54c91cf9c6" x="180.000000" y="648.000000"/>
</g></g>
<g id="line2d5">
<defs><path id="m9281cae24120827b11d5ea8a7ad3e96b" d="M0.000000 0.000000L0.000000 4.000000"/></defs>
<g ><use style="fill: none; stroke: #000000; stroke-width: 0.500000; stroke-linejoin: round; stroke-linecap: butt;  opacity: 1.000000" xlink:href="#m9281cae24120827b11d5ea8a7ad3e96b" x="180.000000" y="72.000000"/>
</g></g>
<g id="text1">
<defs>
<path id="c_7a2040fe3b94fcd41d0a72c84e93b115" d="M31.781250 -66.406250q-7.609375 0.000000 -11.453125 7.500000q-3.828125 7.484375 -3.828125 22.531250q0.000000 14.984375 3.828125 22.484375q3.843750 7.500000 11.453125 7.500000q7.671875 0.000000 11.500000 -7.500000q3.843750 -7.500000 3.843750 -22.484375q0.000000 -15.046875 -3.843750 -22.531250q-3.828125 -7.500000 -11.500000 -7.500000M31.781250 -74.218750q12.265625 0.000000 18.734375 9.703125q6.468750 9.687500 6.468750 28.140625q0.000000 18.406250 -6.468750 28.109375q-6.468750 9.687500 -18.734375 9.687500q-12.250000 0.000000 -18.718750 -9.687500q-6.468750 -9.703125 -6.468750 -28.109375q0.000000 -18.453125 6.468750 -28.140625q6.468750 -9.703125 18.718750 -9.703125"/>
</defs>
<g style="fill: #000000; opacity: 1.000000" transform="translate(176.976562,660.906250)scale(0.120000)">
<use xlink:href="#c_7a2040fe3b94fcd41d0a72c84e93b115"/>
</g>
</g>
</g>
<g id="xtick2">
<g id="line2d6">
<g ><use style="fill: none; stroke: #000000; stroke-width: 0.500000; stroke-linejoin: round; stroke-linecap: butt;  opacity: 1.000000" xlink:href="#m30e32995789d870ad79a2e54c91cf9c6" x="366.310518" y="648.000000"/>
</g></g>
<g id="line2d7">
<g ><use style="fill: none; stroke: #000000; stroke-width: 0.500000; stroke-linejoin: round; stroke-linecap: butt;  opacity: 1.000000" xlink:href="#m9281cae24120827b11d5ea8a7ad3e96b" x="366.310518" y="72.000000"/>
</g></g>
<g id="text2">
<defs>
<path id="c_42baa63129a918535c52adb20d687ea7" d="M12.406250 -8.296875l16.109375 0.000000l0.000000 -55.625000l-17.531250 3.515625l0.000000 -8.984375l17.437500 -3.515625l9.859375 0.000000l0.000000 64.609375l16.109375 0.000000l0.000000 8.296875l-41.984375 0.000000z"/>
</defs>
<g style="fill: #000000; opacity: 1.000000" transform="translate(355.904268,660.906250)scale(0.120000)">
<use xlink:href="#c_42baa63129a918535c52adb20d687ea7"/>
<use xlink:href="#c_7a2040fe3b94fcd41d0a72c84e93b115" x="63.623047"/>
<use xlink:href="#c_7a2040fe3b94fcd41d0a72c84e93b115" x="127.246094"/>
</g>
</g>
</g>
<g id="xtick3">
<g id="line2d8">
<g ><use style="fill: none; stroke: #000000; stroke-width: 0.500000; stroke-linejoin: round; stroke-linecap: butt;  opacity: 1.000000" xlink:href="#m30e32995789d870ad79a2e54c91cf9c6" x="552.621035" y="648.000000"/>
</g></g>
<g id="line2d9">
<g ><use style="fill: none; stroke: #000000; stroke-width: 0.500000; stroke-linejoin: round; stroke-linecap: butt;  opacity: 1.000000" xlink:href="#m9281cae24120827b11d5ea8a7ad3e96b" x="552.621035" y="72.000000"/>
</g></g>
<g id="text3">
<defs>
<path id="c_ed3f3ed3ebfbd18bcb9c012009a68ad1" d="M19.187500 -8.296875l34.421875 0.000000l0.000000 8.296875l-46.281250 0.000000l0.000000 -8.296875q5.609375 -5.812500 15.296875 -15.593750q9.703125 -9.796875 12.187500 -12.640625q4.734375 -5.312500 6.609375 -9.000000q1.890625 -3.687500 1.890625 -7.250000q0.000000 -5.812500 -4.078125 -9.468750q-4.078125 -3.671875 -10.625000 -3.671875q-4.640625 0.000000 -9.796875 1.609375q-5.140625 1.609375 -11.000000 4.890625l0.000000 -9.968750q5.953125 -2.390625 11.125000 -3.609375q5.187500 -1.218750 9.484375 -1.218750q11.328125 0.000000 18.062500 5.671875q6.734375 5.656250 6.734375 15.125000q0.000000 4.500000 -1.687500 8.531250q-1.671875 4.015625 -6.125000 9.484375q-1.218750 1.421875 -7.765625 8.187500q-6.531250 6.765625 -18.453125 18.921875"/>
</defs>
<g style="fill: #000000; opacity: 1.000000" transform="translate(541.996035,660.906250)scale(0.120000)">
<use xlink:href="#c_ed3f3ed3ebfbd18bcb9c012009a68ad1"/>
<use xlink:href="#c_7a2040fe3b94fcd41d0a72c84e93b115" x="63.623047"/>
<use xlink:href="#c_7a2040fe3b94fcd41d0a72c84e93b115" x="127.246094"/>
</g>
</g>
</g>
<g id="xtick4">
<g id="line2d10">
<g ><use style="fill: none; stroke: #000000; stroke-width: 0.500000; stroke-linejoin: round; stroke-linecap: butt;  opacity: 1.000000" xlink:href="#m30e32995789d870ad79a2e54c91cf9c6" x="738.931553" y="648.000000"/>
</g></g>
<g id="line2d11">
<g ><use style="fill: none; stroke: #000000; stroke-width: 0.500000; stroke-linejoin: round; stroke-linecap: butt;  opacity: 1.000000" xlink:href="#m9281cae24120827b11d5ea8a7ad3e96b" x="738.931553" y="72.000000"/>
</g></g>
<g id="text4">
<defs>
<path id="c_3dcfa38a02242cb63ec6726c6e70be7a" d="M40.578125 -39.312500q7.078125 1.515625 11.046875 6.312500q3.984375 4.781250 3.984375 11.812500q0.000000 10.781250 -7.421875 16.703125q-7.421875 5.906250 -21.093750 5.906250q-4.578125 0.000000 -9.437500 -0.906250q-4.859375 -0.906250 -10.031250 -2.718750l0.000000 -9.515625q4.093750 2.390625 8.968750 3.609375q4.890625 1.218750 10.218750 1.218750q9.265625 0.000000 14.125000 -3.656250q4.859375 -3.656250 4.859375 -10.640625q0.000000 -6.453125 -4.515625 -10.078125q-4.515625 -3.640625 -12.562500 -3.640625l-8.500000 0.000000l0.000000 -8.109375l8.890625 0.000000q7.265625 0.000000 11.125000 -2.906250q3.859375 -2.906250 3.859375 -8.375000q0.000000 -5.609375 -3.984375 -8.609375q-3.968750 -3.015625 -11.390625 -3.015625q-4.062500 0.000000 -8.703125 0.890625q-4.640625 0.875000 -10.203125 2.718750l0.000000 -8.781250q5.625000 -1.562500 10.531250 -2.343750q4.906250 -0.781250 9.250000 -0.781250q11.234375 0.000000 17.765625 5.109375q6.546875 5.093750 6.546875 13.781250q0.000000 6.062500 -3.468750 10.234375q-3.468750 4.171875 -9.859375 5.781250"/>
</defs>
<g style="fill: #000000; opacity: 1.000000" transform="translate(728.329990,660.906250)scale(0.120000)">
<use xlink:href="#c_3dcfa38a02242cb63ec6726c6e70be7a"/>
<use xlink:href="#c_7a2040fe3b94fcd41d0a72c84e93b115" x="63.623047"/>
<use xlink:href="#c_7a2040fe3b94fcd41d0a72c84e93b115" x="127.246094"/>
</g>
</g>
</g>
<g id="xtick5">
<g id="line2d12">
<g ><use style="fill: none; stroke: #000000; stroke-width: 0.500000; stroke-linejoin: round; stroke-linecap: butt;  opacity: 1.000000" xlink:href="#m30e32995789d870ad79a2e54c91cf9c6" x="925.242070" y="648.000000"/>
</g></g>
<g id="line2d13">
<g ><use style="fill: none; stroke: #000000; stroke-width: 0.500000; stroke-linejoin: round; stroke-linecap: butt;  opacity: 1.000000" xlink:href="#m9281cae24120827b11d5ea8a7ad3e96b" x="925.242070" y="72.000000"/>
</g></g>
<g id="text5">
<defs>
<path id="c_a0416418d96557a09b8c1332d34883ba" d="M37.796875 -64.312500l-24.906250 38.921875l24.906250 0.000000zM35.203125 -72.906250l12.406250 0.000000l0.000000 47.515625l10.406250 0.000000l0.000000 8.203125l-10.406250 0.000000l0.000000 17.187500l-9.812500 0.000000l0.000000 -17.187500l-32.906250 0.000000l0.000000 -9.515625z"/>
</defs>
<g style="fill: #000000; opacity: 1.000000" transform="translate(914.476445,660.906250)scale(0.120000)">
<use xlink:href="#c_a0416418d96557a09b8c1332d34883ba"/>
<use xlink:href="#c_7a2040fe3b94fcd41d0a72c84e93b115" x="63.623047"/>
<use xlink:href="#c_7a2040fe3b94fcd41d0a72c84e93b115" x="127.246094"/>
</g>
</g>
</g>
<g id="xtick6">
<g id="line2d14">
<g ><use style="fill: none; stroke: #000000; stroke-width: 0.500000; stroke-linejoin: round; stroke-linecap: butt;  opacity: 1.000000" xlink:href="#m30e32995789d870ad79a2e54c91cf9c6" x="1111.552588" y="648.000000"/>
</g></g>
<g id="line2d15">
<g ><use style="fill: none; stroke: #000000; stroke-width: 0.500000; stroke-linejoin: round; stroke-linecap: butt;  opacity: 1.000000" xlink:href="#m9281cae24120827b11d5ea8a7ad3e96b" x="1111.552588" y="72.000000"/>
</g></g>
<g id="text6">
<defs>
<path id="c_1260a2df50f305f3db244e29828f968e" d="M10.796875 -72.906250l38.718750 0.000000l0.000000 8.312500l-29.687500 0.000000l0.000000 17.859375q2.140625 -0.734375 4.281250 -1.093750q2.156250 -0.359375 4.312500 -0.359375q12.203125 0.000000 19.328125 6.687500q7.140625 6.687500 7.140625 18.109375q0.000000 11.765625 -7.328125 18.296875q-7.328125 6.515625 -20.656250 6.515625q-4.593750 0.000000 -9.359375 -0.781250q-4.750000 -0.781250 -9.828125 -2.343750l0.000000 -9.921875q4.390625 2.390625 9.078125 3.562500q4.687500 1.171875 9.906250 1.171875q8.453125 0.000000 13.375000 -4.437500q4.937500 -4.437500 4.937500 -12.062500q0.000000 -7.609375 -4.937500 -12.046875q-4.921875 -4.453125 -13.375000 -4.453125q-3.953125 0.000000 -7.890625 0.875000q-3.921875 0.875000 -8.015625 2.734375z"/>
</defs>
<g style="fill: #000000; opacity: 1.000000" transform="translate(1100.951025,660.906250)scale(0.120000)">
<use xlink:href="#c_1260a2df50f305f3db244e29828f968e"/>
<use xlink:href="#c_7a2040fe3b94fcd41d0a72c84e93b115" x="63.623047"/>
<use xlink:href="#c_7a2040fe3b94fcd41d0a72c84e93b115" x="127.246094"/>
</g>
</g>
</g>
<g id="text7">
<defs>
<path id="c_0f8c41144cfbf448378cb6fd1cc8e549" d="M18.312500 -70.218750l0.000000 15.531250l18.500000 0.000000l0.000000 6.984375l-18.500000 0.000000l0.000000 29.687500q0.000000 6.687500 1.828125 8.593750q1.828125 1.906250 7.453125 1.906250l9.218750 0.000000l0.000000 7.515625l-9.218750 0.000000q-10.406250 0.000000 -14.359375 -3.875000q-3.953125 -3.890625 -3.953125 -14.140625l0.000000 -29.687500l-6.593750 0.000000l0.000000 -6.984375l6.593750 0.000000l0.000000 -15.531250z"/>
<path id="c_6a63bda47b2f3da1cec6aadd80692cfe" d="M9.421875 -54.687500l8.984375 0.000000l0.000000 54.687500l-8.984375 0.000000zM9.421875 -75.984375l8.984375 0.000000l0.000000 11.390625l-8.984375 0.000000z"/>
<path id="c_4653c6dfde66c7610eae0911760d3490" d="M52.000000 -44.187500q3.375000 -6.062500 8.062500 -8.937500q4.687500 -2.875000 11.031250 -2.875000q8.546875 0.000000 13.187500 5.984375q4.640625 5.968750 4.640625 17.000000l0.000000 33.015625l-9.031250 0.000000l0.000000 -32.718750q0.000000 -7.859375 -2.796875 -11.656250q-2.781250 -3.812500 -8.484375 -3.812500q-6.984375 0.000000 -11.046875 4.640625q-4.046875 4.625000 -4.046875 12.640625l0.000000 30.906250l-9.031250 0.000000l0.000000 -32.718750q0.000000 -7.906250 -2.781250 -11.687500q-2.781250 -3.781250 -8.593750 -3.781250q-6.890625 0.000000 -10.953125 4.656250q-4.046875 4.656250 -4.046875 12.625000l0.000000 30.906250l-9.031250 0.000000l0.000000 -54.687500l9.031250 0.000000l0.000000 8.500000q3.078125 -5.031250 7.375000 -7.421875q4.296875 -2.390625 10.203125 -2.390625q5.968750 0.000000 10.140625 3.031250q4.171875 3.015625 6.171875 8.781250"/>
<path id="c_0bce5afba2dc6b9024b26277c38ad8e8" d="M56.203125 -29.593750l0.000000 4.390625l-41.312500 0.000000q0.593750 9.281250 5.593750 14.140625q5.000000 4.859375 13.937500 4.859375q5.171875 0.000000 10.031250 -1.265625q4.859375 -1.265625 9.656250 -3.812500l0.000000 8.500000q-4.843750 2.046875 -9.921875 3.125000q-5.078125 1.078125 -10.296875 1.078125q-13.093750 0.000000 -20.734375 -7.609375q-7.640625 -7.625000 -7.640625 -20.625000q0.000000 -13.421875 7.250000 -21.296875q7.250000 -7.890625 19.562500 -7.890625q11.031250 0.000000 17.453125 7.109375q6.421875 7.093750 6.421875 19.296875M47.218750 -32.234375q-0.093750 -7.359375 -4.125000 -11.750000q-4.031250 -4.406250 -10.671875 -4.406250q-7.515625 0.000000 -12.031250 4.250000q-4.515625 4.250000 -5.203125 11.968750z"/>
<path id="c_d41d8cd98f00b204e9800998ecf8427e" d=""/>
<path id="c_fe791a90f5471e2ab20a5ed41a7fa451" d="M54.890625 -33.015625l0.000000 33.015625l-8.984375 0.000000l0.000000 -32.718750q0.000000 -7.765625 -3.031250 -11.609375q-3.031250 -3.859375 -9.078125 -3.859375q-7.281250 0.000000 -11.484375 4.640625q-4.203125 4.625000 -4.203125 12.640625l0.000000 30.906250l-9.031250 0.000000l0.000000 -54.687500l9.031250 0.000000l0.000000 8.500000q3.234375 -4.937500 7.593750 -7.375000q4.375000 -2.437500 10.093750 -2.437500q9.421875 0.000000 14.250000 5.828125q4.843750 5.828125 4.843750 17.156250"/>
<path id="c_8e0810ad13fe20a2a87a2619799b154d" d="M44.281250 -53.078125l0.000000 8.500000q-3.796875 -1.953125 -7.906250 -2.921875q-4.093750 -0.984375 -8.500000 -0.984375q-6.687500 0.000000 -10.031250 2.046875q-3.343750 2.046875 -3.343750 6.156250q0.000000 3.125000 2.390625 4.906250q2.390625 1.781250 9.625000 3.390625l3.078125 0.687500q9.562500 2.046875 13.593750 5.781250q4.031250 3.734375 4.031250 10.421875q0.000000 7.625000 -6.031250 12.078125q-6.031250 4.437500 -16.578125 4.437500q-4.390625 0.000000 -9.156250 -0.859375q-4.765625 -0.859375 -10.031250 -2.562500l0.000000 -9.281250q4.984375 2.593750 9.812500 3.890625q4.828125 1.281250 9.578125 1.281250q6.343750 0.000000 9.750000 -2.171875q3.421875 -2.171875 3.421875 -6.125000q0.000000 -3.656250 -2.468750 -5.609375q-2.453125 -1.953125 -10.812500 -3.765625l-3.125000 -0.734375q-8.343750 -1.750000 -12.062500 -5.390625q-3.703125 -3.640625 -3.703125 -9.984375q0.000000 -7.718750 5.468750 -11.906250q5.468750 -4.203125 15.531250 -4.203125q4.968750 0.000000 9.359375 0.734375q4.406250 0.718750 8.109375 2.187500"/>
<path id="c_d650c37394b681142a10dfc54356d478" d="M48.781250 -52.593750l0.000000 8.406250q-3.812500 -2.109375 -7.640625 -3.156250q-3.828125 -1.046875 -7.734375 -1.046875q-8.750000 0.000000 -13.593750 5.546875q-4.828125 5.531250 -4.828125 15.546875q0.000000 10.015625 4.828125 15.562500q4.843750 5.531250 13.593750 5.531250q3.906250 0.000000 7.734375 -1.046875q3.828125 -1.046875 7.640625 -3.156250l0.000000 8.312500q-3.765625 1.750000 -7.796875 2.625000q-4.015625 0.890625 -8.562500 0.890625q-12.359375 0.000000 -19.640625 -7.765625q-7.265625 -7.765625 -7.265625 -20.953125q0.000000 -13.375000 7.343750 -21.031250q7.359375 -7.671875 20.156250 -7.671875q4.140625 0.000000 8.093750 0.859375q3.953125 0.843750 7.671875 2.546875"/>
<path id="c_f05dd90d41f04bb96ef1ca503cc2044b" d="M30.609375 -48.390625q-7.218750 0.000000 -11.421875 5.640625q-4.203125 5.640625 -4.203125 15.453125q0.000000 9.812500 4.171875 15.453125q4.187500 5.640625 11.453125 5.640625q7.187500 0.000000 11.375000 -5.656250q4.203125 -5.671875 4.203125 -15.437500q0.000000 -9.718750 -4.203125 -15.406250q-4.187500 -5.687500 -11.375000 -5.687500M30.609375 -56.000000q11.718750 0.000000 18.406250 7.625000q6.703125 7.609375 6.703125 21.078125q0.000000 13.421875 -6.703125 21.078125q-6.687500 7.640625 -18.406250 7.640625q-11.765625 0.000000 -18.437500 -7.640625q-6.656250 -7.656250 -6.656250 -21.078125q0.000000 -13.468750 6.656250 -21.078125q6.671875 -7.625000 18.437500 -7.625000"/>
<path id="c_d821beae607506e87470f334d9ff47af" d="M45.406250 -46.390625l0.000000 -29.593750l8.984375 0.000000l0.000000 75.984375l-8.984375 0.000000l0.000000 -8.203125q-2.828125 4.875000 -7.156250 7.250000q-4.312500 2.375000 -10.375000 2.375000q-9.906250 0.000000 -16.140625 -7.906250q-6.218750 -7.921875 -6.218750 -20.812500q0.000000 -12.890625 6.218750 -20.796875q6.234375 -7.906250 16.140625 -7.906250q6.062500 0.000000 10.375000 2.375000q4.328125 2.359375 7.156250 7.234375M14.796875 -27.296875q0.000000 9.906250 4.078125 15.546875q4.078125 5.640625 11.203125 5.640625q7.125000 0.000000 11.218750 -5.640625q4.109375 -5.640625 4.109375 -15.546875q0.000000 -9.906250 -4.109375 -15.546875q-4.093750 -5.640625 -11.218750 -5.640625q-7.125000 0.000000 -11.203125 5.640625q-4.078125 5.640625 -4.078125 15.546875"/>
</defs>
<g style="fill: #000000; opacity: 1.000000" transform="translate(690.382812,675.203125)scale(0.120000)">
<use xlink:href="#c_0f8c41144cfbf448378cb6fd1cc8e549"/>
<use xlink:href="#c_6a63bda47b2f3da1cec6aadd80692cfe" x="39.208984"/>
<use xlink:href="#c_4653c6dfde66c7610eae0911760d3490" x="66.992188"/>
<use xlink:href="#c_0bce5afba2dc6b9024b26277c38ad8e8" x="164.404297"/>
<use xlink:href="#c_d41d8cd98f00b204e9800998ecf8427e" x="225.927734"/>
<use xlink:href="#c_6a63bda47b2f3da1cec6aadd80692cfe" x="257.714844"/>
<use xlink:href="#c_fe791a90f5471e2ab20a5ed41a7fa451" x="285.498047"/>
<use xlink:href="#c_d41d8cd98f00b204e9800998ecf8427e" x="348.876953"/>
<use xlink:href="#c_8e0810ad13fe20a2a87a2619799b154d" x="380.664062"/>
<use xlink:href="#c_0bce5afba2dc6b9024b26277c38ad8e8" x="432.763672"/>
<use xlink:href="#c_d650c37394b681142a10dfc54356d478" x="494.287109"/>
<use xlink:href="#c_f05dd90d41f04bb96ef1ca503cc2044b" x="549.267578"/>
<use xlink:href="#c_fe791a90f5471e2ab20a5ed41a7fa451" x="610.449219"/>
<use xlink:href="#c_d821beae607506e87470f334d9ff47af" x="673.828125"/>
<use xlink:href="#c_0bce5afba2dc6b9024b26277c38ad8e8" x="737.304688"/>
</g>
</g>
</g>
<g id="matplotlib.axis2">
<g id="ytick1">
<g id="line2d16">
<defs><path id="m3400efa6b1638b3fea9e19e898273957" d="M0.000000 0.000000L4.000000 0.000000"/></defs>
<g ><use style="fill: none; stroke: #000000; stroke-width: 0.500000; stroke-linejoin: round; stroke-linecap: butt;  opacity: 1.000000" xlink:href="#m3400efa6b1638b3fea9e19e898273957" x="180.000000" y="648.000000"/>
</g></g>
<g id="line2d17">
<defs><path id="m20b58b2501143cb5e0a5e8f1ef6f1643" d="M0.000000 0.000000L-4.000000 0.000000"/></defs>
<g ><use style="fill: none; stroke: #000000; stroke-width: 0.500000; stroke-linejoin: round; stroke-linecap: butt;  opacity: 1.000000" xlink:href="#m20b58b2501143cb5e0a5e8f1ef6f1643" x="1296.000000" y="648.000000"/>
</g></g>
<g id="text8">
<g style="fill: #000000; opacity: 1.000000" transform="translate(169.953125,652.367188)scale(0.120000)">
<use xlink:href="#c_7a2040fe3b94fcd41d0a72c84e93b115"/>
</g>
</g>
</g>
<g id="ytick2">
<g id="line2d18">
<g ><use style="fill: none; stroke: #000000; stroke-width: 0.500000; stroke-linejoin: round; stroke-linecap: butt;  opacity: 1.000000" xlink:href="#m3400efa6b1638b3fea9e19e898273957" x="180.000000" y="532.800000"/>
</g></g>
<g id="line2d19">
<g ><use style="fill: none; stroke: #000000; stroke-width: 0.500000; stroke-linejoin: round; stroke-linecap: butt;  opacity: 1.000000" xlink:href="#m20b58b2501143cb5e0a5e8f1ef6f1643" x="1296.000000" y="532.800000"/>
</g></g>
<g id="text9">
<g style="fill: #000000; opacity: 1.000000" transform="translate(162.390625,537.167187)scale(0.120000)">
<use xlink:href="#c_ed3f3ed3ebfbd18bcb9c012009a68ad1"/>
<use xlink:href="#c_7a2040fe3b94fcd41d0a72c84e93b115" x="63.623047"/>
</g>
</g>
</g>
<g id="ytick3">
<g id="line2d20">
<g ><use style="fill: none; stroke: #000000; stroke-width: 0.500000; stroke-linejoin: round; stroke-linecap: butt;  opacity: 1.000000" xlink:href="#m3400efa6b1638b3fea9e19e898273957" x="180.000000" y="417.600000"/>
</g></g>
<g id="line2d21">
<g ><use style="fill: none; stroke: #000000; stroke-width: 0.500000; stroke-linejoin: round; stroke-linecap: butt;  opacity: 1.000000" xlink:href="#m20b58b2501143cb5e0a5e8f1ef6f1643" x="1296.000000" y="417.600000"/>
</g></g>
<g id="text10">
<g style="fill: #000000; opacity: 1.000000" transform="translate(162.109375,421.967188)scale(0.120000)">
<use xlink:href="#c_a0416418d96557a09b8c1332d34883ba"/>
<use xlink:href="#c_7a2040fe3b94fcd41d0a72c84e93b115" x="63.623047"/>
</g>
</g>
</g>
<g id="ytick4">
<g id="line2d22">
<g ><use style="fill: none; stroke: #000000; stroke-width: 0.500000; stroke-linejoin: round; stroke-linecap: butt;  opacity: 1.000000" xlink:href="#m3400efa6b1638b3fea9e19e898273957" x="180.000000" y="302.400000"/>
</g></g>
<g id="line2d23">
<g ><use style="fill: none; stroke: #000000; stroke-width: 0.500000; stroke-linejoin: round; stroke-linecap: butt;  opacity: 1.000000" xlink:href="#m20b58b2501143cb5e0a5e8f1ef6f1643" x="1296.000000" y="302.400000"/>
</g></g>
<g id="text11">
<defs>
<path id="c_cc8d6d580d1b10c8632f7a42cd53db8a" d="M33.015625 -40.375000q-6.640625 0.000000 -10.531250 4.546875q-3.875000 4.531250 -3.875000 12.437500q0.000000 7.859375 3.875000 12.437500q3.890625 4.562500 10.531250 4.562500q6.640625 0.000000 10.515625 -4.562500q3.875000 -4.578125 3.875000 -12.437500q0.000000 -7.906250 -3.875000 -12.437500q-3.875000 -4.546875 -10.515625 -4.546875M52.593750 -71.296875l0.000000 8.984375q-3.718750 -1.750000 -7.500000 -2.671875q-3.781250 -0.937500 -7.500000 -0.937500q-9.765625 0.000000 -14.921875 6.593750q-5.140625 6.593750 -5.875000 19.921875q2.875000 -4.250000 7.218750 -6.515625q4.359375 -2.265625 9.578125 -2.265625q10.984375 0.000000 17.359375 6.671875q6.375000 6.656250 6.375000 18.125000q0.000000 11.234375 -6.640625 18.031250q-6.640625 6.781250 -17.671875 6.781250q-12.656250 0.000000 -19.343750 -9.687500q-6.687500 -9.703125 -6.687500 -28.109375q0.000000 -17.281250 8.203125 -27.562500q8.203125 -10.281250 22.015625 -10.281250q3.718750 0.000000 7.500000 0.734375q3.781250 0.734375 7.890625 2.187500"/>
</defs>
<g style="fill: #000000; opacity: 1.000000" transform="translate(162.359375,306.767188)scale(0.120000)">
<use xlink:href="#c_cc8d6d580d1b10c8632f7a42cd53db8a"/>
<use xlink:href="#c_7a2040fe3b94fcd41d0a72c84e93b115" x="63.623047"/>
</g>
</g>
</g>
<g id="ytick5">
<g id="line2d24">
<g ><use style="fill: none; stroke: #000000; stroke-width: 0.500000; stroke-linejoin: round; stroke-linecap: butt;  opacity: 1.000000" xlink:href="#m3400efa6b1638b3fea9e19e898273957" x="180.000000" y="187.200000"/>
</g></g>
<g id="line2d25">
<g ><use style="fill: none; stroke: #000000; stroke-width: 0.500000; stroke-linejoin: round; stroke-linecap: butt;  opacity: 1.000000" xlink:href="#m20b58b2501143cb5e0a5e8f1ef6f1643" x="1296.000000" y="187.200000"/>
</g></g>
<g id="text12">
<defs>
<path id="c_bef35738d52871942e50b9de9b122bab" d="M31.781250 -34.625000q-7.031250 0.000000 -11.062500 3.765625q-4.015625 3.765625 -4.015625 10.343750q0.000000 6.593750 4.015625 10.359375q4.031250 3.765625 11.062500 3.765625q7.031250 0.000000 11.078125 -3.781250q4.062500 -3.796875 4.062500 -10.343750q0.000000 -6.578125 -4.031250 -10.343750q-4.015625 -3.765625 -11.109375 -3.765625M21.921875 -38.812500q-6.343750 -1.562500 -9.890625 -5.906250q-3.531250 -4.359375 -3.531250 -10.609375q0.000000 -8.734375 6.218750 -13.812500q6.234375 -5.078125 17.062500 -5.078125q10.890625 0.000000 17.093750 5.078125q6.203125 5.078125 6.203125 13.812500q0.000000 6.250000 -3.546875 10.609375q-3.531250 4.343750 -9.828125 5.906250q7.125000 1.656250 11.093750 6.500000q3.984375 4.828125 3.984375 11.796875q0.000000 10.609375 -6.468750 16.281250q-6.468750 5.656250 -18.531250 5.656250q-12.046875 0.000000 -18.531250 -5.656250q-6.468750 -5.671875 -6.468750 -16.281250q0.000000 -6.968750 4.000000 -11.796875q4.015625 -4.843750 11.140625 -6.500000M18.312500 -54.390625q0.000000 5.656250 3.531250 8.828125q3.546875 3.171875 9.937500 3.171875q6.359375 0.000000 9.937500 -3.171875q3.593750 -3.171875 3.593750 -8.828125q0.000000 -5.671875 -3.593750 -8.843750q-3.578125 -3.171875 -9.937500 -3.171875q-6.390625 0.000000 -9.937500 3.171875q-3.531250 3.171875 -3.531250 8.843750"/>
</defs>
<g style="fill: #000000; opacity: 1.000000" transform="translate(162.328125,191.567188)scale(0.120000)">
<use xlink:href="#c_bef35738d52871942e50b9de9b122bab"/>
<use xlink:href="#c_7a2040fe3b94fcd41d0a72c84e93b115" x="63.623047"/>
</g>
</g>
</g>
<g id="ytick6">
<g id="line2d26">
<g ><use style="fill: none; stroke: #000000; stroke-width: 0.500000; stroke-linejoin: round; stroke-linecap: butt;  opacity: 1.000000" xlink:href="#m3400efa6b1638b3fea9e19e898273957" x="180.000000" y="72.000000"/>
</g></g>
<g id="line2d27">
<g ><use style="fill: none; stroke: #000000; stroke-width: 0.500000; stroke-linejoin: round; stroke-linecap: butt;  opacity: 1.000000" xlink:href="#m20b58b2501143cb5e0a5e8f1ef6f1643" x="1296.000000" y="72.000000"/>
</g></g>
<g id="text13">
<g style="fill: #000000; opacity: 1.000000" transform="translate(155.187500,76.367188)scale(0.120000)">
<use xlink:href="#c_42baa63129a918535c52adb20d687ea7"/>
<use xlink:href="#c_7a2040fe3b94fcd41d0a72c84e93b115" x="63.623047"/>
<use xlink:href="#c_7a2040fe3b94fcd41d0a72c84e93b115" x="127.246094"/>
</g>
</g>
</g>
<g id="text14">
<defs>
<path id="c_6ec8d5749226675394676a5d2a3b468b" d="M41.109375 -46.296875q-1.515625 -0.875000 -3.296875 -1.281250q-1.781250 -0.421875 -3.921875 -0.421875q-7.625000 0.000000 -11.703125 4.953125q-4.078125 4.953125 -4.078125 14.234375l0.000000 28.812500l-9.031250 0.000000l0.000000 -54.687500l9.031250 0.000000l0.000000 8.500000q2.843750 -4.984375 7.375000 -7.390625q4.546875 -2.421875 11.046875 -2.421875q0.921875 0.000000 2.046875 0.125000q1.125000 0.109375 2.484375 0.359375z"/>
<path id="c_1e6263c731c474ef67a09469452f0b99" d="M11.718750 -12.406250l10.296875 0.000000l0.000000 12.406250l-10.296875 0.000000zM11.718750 -51.703125l10.296875 0.000000l0.000000 12.390625l-10.296875 0.000000z"/>
<path id="c_f15a64fcd463ef4629c48bab42cde24c" d="M18.109375 -8.203125l0.000000 29.000000l-9.031250 0.000000l0.000000 -75.484375l9.031250 0.000000l0.000000 8.296875q2.843750 -4.875000 7.156250 -7.234375q4.328125 -2.375000 10.328125 -2.375000q9.968750 0.000000 16.187500 7.906250q6.234375 7.906250 6.234375 20.796875q0.000000 12.890625 -6.234375 20.812500q-6.218750 7.906250 -16.187500 7.906250q-6.000000 0.000000 -10.328125 -2.375000q-4.312500 -2.375000 -7.156250 -7.250000M48.687500 -27.296875q0.000000 -9.906250 -4.078125 -15.546875q-4.078125 -5.640625 -11.203125 -5.640625q-7.140625 0.000000 -11.218750 5.640625q-4.078125 5.640625 -4.078125 15.546875q0.000000 9.906250 4.078125 15.546875q4.078125 5.640625 11.218750 5.640625q7.125000 0.000000 11.203125 -5.640625q4.078125 -5.640625 4.078125 -15.546875"/>
<path id="c_3b515ad41f960e225ec85275856806ca" d="M8.500000 -21.578125l0.000000 -33.109375l8.984375 0.000000l0.000000 32.765625q0.000000 7.765625 3.015625 11.656250q3.031250 3.875000 9.093750 3.875000q7.265625 0.000000 11.484375 -4.640625q4.234375 -4.640625 4.234375 -12.656250l0.000000 -31.000000l8.984375 0.000000l0.000000 54.687500l-8.984375 0.000000l0.000000 -8.406250q-3.265625 4.984375 -7.593750 7.406250q-4.312500 2.421875 -10.031250 2.421875q-9.421875 0.000000 -14.312500 -5.859375q-4.875000 -5.859375 -4.875000 -17.140625M31.109375 -56.000000z"/>
<path id="c_7b26b13f539f13a4c64eef23b6952d29" d="M4.890625 -31.390625l26.312500 0.000000l0.000000 8.000000l-26.312500 0.000000z"/>
<path id="c_5cc9741494d2ad8f9764e03ae145569f" d="M48.687500 -27.296875q0.000000 -9.906250 -4.078125 -15.546875q-4.078125 -5.640625 -11.203125 -5.640625q-7.140625 0.000000 -11.218750 5.640625q-4.078125 5.640625 -4.078125 15.546875q0.000000 9.906250 4.078125 15.546875q4.078125 5.640625 11.218750 5.640625q7.125000 0.000000 11.203125 -5.640625q4.078125 -5.640625 4.078125 -15.546875M18.109375 -46.390625q2.843750 -4.875000 7.156250 -7.234375q4.328125 -2.375000 10.328125 -2.375000q9.968750 0.000000 16.187500 7.906250q6.234375 7.906250 6.234375 20.796875q0.000000 12.890625 -6.234375 20.812500q-6.218750 7.906250 -16.187500 7.906250q-6.000000 0.000000 -10.328125 -2.375000q-4.312500 -2.375000 -7.156250 -7.250000l0.000000 8.203125l-9.031250 0.000000l0.000000 -75.984375l9.031250 0.000000z"/>
<path id="c_5099edb83619131346ae654950954dea" d="M9.421875 -75.984375l8.984375 0.000000l0.000000 75.984375l-8.984375 0.000000z"/>
<path id="c_e3864de5dabf2f8dd9eee74726882ec1" d="M45.406250 -27.984375q0.000000 -9.765625 -4.031250 -15.125000q-4.015625 -5.375000 -11.296875 -5.375000q-7.218750 0.000000 -11.250000 5.375000q-4.031250 5.359375 -4.031250 15.125000q0.000000 9.718750 4.031250 15.093750q4.031250 5.375000 11.250000 5.375000q7.281250 0.000000 11.296875 -5.375000q4.031250 -5.375000 4.031250 -15.093750M54.390625 -6.781250q0.000000 13.953125 -6.203125 20.765625q-6.187500 6.812500 -18.984375 6.812500q-4.734375 0.000000 -8.937500 -0.703125q-4.203125 -0.703125 -8.156250 -2.171875l0.000000 -8.734375q3.953125 2.140625 7.812500 3.156250q3.859375 1.031250 7.859375 1.031250q8.843750 0.000000 13.234375 -4.609375q4.390625 -4.609375 4.390625 -13.937500l0.000000 -4.453125q-2.781250 4.843750 -7.125000 7.234375q-4.343750 2.390625 -10.406250 2.390625q-10.046875 0.000000 -16.203125 -7.656250q-6.156250 -7.671875 -6.156250 -20.328125q0.000000 -12.687500 6.156250 -20.343750q6.156250 -7.671875 16.203125 -7.671875q6.062500 0.000000 10.406250 2.390625q4.343750 2.390625 7.125000 7.218750l0.000000 -8.296875l8.984375 0.000000z"/>
<path id="c_57adaa7083d7229075db8bc2c5b2febe" d="M4.203125 -54.687500l8.984375 0.000000l11.234375 42.671875l11.171875 -42.671875l10.593750 0.000000l11.234375 42.671875l11.187500 -42.671875l8.984375 0.000000l-14.312500 54.687500l-10.593750 0.000000l-11.765625 -44.828125l-11.812500 44.828125l-10.609375 0.000000z"/>
<path id="c_01d93a582460e35a7945ca50d148ffeb" d="M34.281250 -27.484375q-10.890625 0.000000 -15.093750 2.484375q-4.203125 2.484375 -4.203125 8.500000q0.000000 4.781250 3.156250 7.593750q3.156250 2.796875 8.562500 2.796875q7.484375 0.000000 12.000000 -5.296875q4.515625 -5.296875 4.515625 -14.078125l0.000000 -2.000000zM52.203125 -31.203125l0.000000 31.203125l-8.984375 0.000000l0.000000 -8.296875q-3.078125 4.968750 -7.671875 7.343750q-4.593750 2.375000 -11.234375 2.375000q-8.390625 0.000000 -13.359375 -4.718750q-4.953125 -4.718750 -4.953125 -12.625000q0.000000 -9.218750 6.171875 -13.906250q6.187500 -4.687500 18.437500 -4.687500l12.609375 0.000000l0.000000 -0.890625q0.000000 -6.203125 -4.078125 -9.593750q-4.078125 -3.390625 -11.453125 -3.390625q-4.687500 0.000000 -9.140625 1.125000q-4.437500 1.125000 -8.531250 3.375000l0.000000 -8.312500q4.921875 -1.906250 9.562500 -2.843750q4.640625 -0.953125 9.031250 -0.953125q11.875000 0.000000 17.734375 6.156250q5.859375 6.140625 5.859375 18.640625"/>
<path id="c_7efa9804c2b4c09a4b614b91fdebee3d" d="M31.000000 -75.875000q-6.531250 11.218750 -9.718750 22.218750q-3.171875 10.984375 -3.171875 22.265625q0.000000 11.265625 3.203125 22.328125q3.203125 11.062500 9.687500 22.250000l-7.812500 0.000000q-7.312500 -11.484375 -10.953125 -22.562500q-3.640625 -11.078125 -3.640625 -22.015625q0.000000 -10.890625 3.609375 -21.921875q3.625000 -11.046875 10.984375 -22.562500z"/>
<path id="c_a56f7596f19f36c336140607221b43ce" d="M72.703125 -32.078125q-4.250000 0.000000 -6.671875 3.609375q-2.406250 3.609375 -2.406250 10.062500q0.000000 6.343750 2.406250 9.984375q2.421875 3.640625 6.671875 3.640625q4.156250 0.000000 6.562500 -3.640625q2.421875 -3.640625 2.421875 -9.984375q0.000000 -6.406250 -2.421875 -10.031250q-2.406250 -3.640625 -6.562500 -3.640625M72.703125 -38.281250q7.718750 0.000000 12.250000 5.375000q4.546875 5.359375 4.546875 14.500000q0.000000 9.125000 -4.562500 14.484375q-4.562500 5.343750 -12.234375 5.343750q-7.812500 0.000000 -12.359375 -5.343750q-4.531250 -5.359375 -4.531250 -14.484375q0.000000 -9.187500 4.562500 -14.531250q4.562500 -5.343750 12.328125 -5.343750M22.312500 -68.015625q-4.203125 0.000000 -6.625000 3.640625q-2.406250 3.625000 -2.406250 9.984375q0.000000 6.437500 2.390625 10.062500q2.390625 3.609375 6.640625 3.609375q4.250000 0.000000 6.656250 -3.609375q2.421875 -3.625000 2.421875 -10.062500q0.000000 -6.296875 -2.437500 -9.953125q-2.437500 -3.671875 -6.640625 -3.671875M66.406250 -74.218750l7.812500 0.000000l-45.609375 75.640625l-7.812500 0.000000zM22.312500 -74.218750q7.718750 0.000000 12.296875 5.343750q4.593750 5.343750 4.593750 14.484375q0.000000 9.218750 -4.562500 14.546875q-4.562500 5.328125 -12.328125 5.328125q-7.765625 0.000000 -12.281250 -5.343750q-4.515625 -5.359375 -4.515625 -14.531250q0.000000 -9.093750 4.531250 -14.453125q4.546875 -5.375000 12.265625 -5.375000"/>
<path id="c_e96974be642f6eac0427d72f9cec6c19" d="M8.015625 -75.875000l7.812500 0.000000q7.312500 11.515625 10.953125 22.562500q3.640625 11.031250 3.640625 21.921875q0.000000 10.937500 -3.640625 22.015625q-3.640625 11.078125 -10.953125 22.562500l-7.812500 0.000000q6.484375 -11.187500 9.687500 -22.250000q3.203125 -11.062500 3.203125 -22.328125q0.000000 -11.281250 -3.203125 -22.265625q-3.203125 -11.000000 -9.687500 -22.218750"/>
</defs>
<g style="fill: #000000; opacity: 1.000000" transform="translate(150.187500,488.117188)rotate(-90.0)scale(0.120000)">
<use xlink:href="#c_6ec8d5749226675394676a5d2a3b468b"/>
<use xlink:href="#c_0bce5afba2dc6b9024b26277c38ad8e8" x="38.863281"/>
<use xlink:href="#c_d821beae607506e87470f334d9ff47af" x="100.386719"/>
<use xlink:href="#c_d41d8cd98f00b204e9800998ecf8427e" x="163.863281"/>
<use xlink:href="#c_1e6263c731c474ef67a09469452f0b99" x="195.650391"/>
<use xlink:href="#c_d41d8cd98f00b204e9800998ecf8427e" x="229.341797"/>
<use xlink:href="#c_d650c37394b681142a10dfc54356d478" x="261.128906"/>
<use xlink:href="#c_f15a64fcd463ef4629c48bab42cde24c" x="316.109375"/>
<use xlink:href="#c_3b515ad41f960e225ec85275856806ca" x="379.585938"/>
<use xlink:href="#c_d41d8cd98f00b204e9800998ecf8427e" x="442.964844"/>
<use xlink:href="#c_7b26b13f539f13a4c64eef23b6952d29" x="474.751953"/>
<use xlink:href="#c_d41d8cd98f00b204e9800998ecf8427e" x="510.835938"/>
<use xlink:href="#c_5cc9741494d2ad8f9764e03ae145569f" x="542.623047"/>
<use xlink:href="#c_5099edb83619131346ae654950954dea" x="606.099609"/>
<use xlink:href="#c_3b515ad41f960e225ec85275856806ca" x="633.882812"/>
<use xlink:href="#c_0bce5afba2dc6b9024b26277c38ad8e8" x="697.261719"/>
<use xlink:href="#c_d41d8cd98f00b204e9800998ecf8427e" x="758.785156"/>
<use xlink:href="#c_1e6263c731c474ef67a09469452f0b99" x="790.572266"/>
<use xlink:href="#c_d41d8cd98f00b204e9800998ecf8427e" x="824.263672"/>
<use xlink:href="#c_4653c6dfde66c7610eae0911760d3490" x="856.050781"/>
<use xlink:href="#c_0bce5afba2dc6b9024b26277c38ad8e8" x="953.462891"/>
<use xlink:href="#c_4653c6dfde66c7610eae0911760d3490" x="1014.986328"/>
<use xlink:href="#c_d41d8cd98f00b204e9800998ecf8427e" x="1112.398438"/>
<use xlink:href="#c_7b26b13f539f13a4c64eef23b6952d29" x="1144.185547"/>
<use xlink:href="#c_d41d8cd98f00b204e9800998ecf8427e" x="1180.269531"/>
<use xlink:href="#c_e3864de5dabf2f8dd9eee74726882ec1" x="1212.056641"/>
<use xlink:href="#c_6ec8d5749226675394676a5d2a3b468b" x="1275.533203"/>
<use xlink:href="#c_0bce5afba2dc6b9024b26277c38ad8e8" x="1314.396484"/>
<use xlink:href="#c_0bce5afba2dc6b9024b26277c38ad8e8" x="1375.919922"/>
<use xlink:href="#c_fe791a90f5471e2ab20a5ed41a7fa451" x="1437.443359"/>
<use xlink:href="#c_d41d8cd98f00b204e9800998ecf8427e" x="1500.822266"/>
<use xlink:href="#c_1e6263c731c474ef67a09469452f0b99" x="1532.609375"/>
<use xlink:href="#c_d41d8cd98f00b204e9800998ecf8427e" x="1566.300781"/>
<use xlink:href="#c_8e0810ad13fe20a2a87a2619799b154d" x="1598.087891"/>
<use xlink:href="#c_57adaa7083d7229075db8bc2c5b2febe" x="1650.187500"/>
<use xlink:href="#c_01d93a582460e35a7945ca50d148ffeb" x="1731.974609"/>
<use xlink:href="#c_f15a64fcd463ef4629c48bab42cde24c" x="1793.253906"/>
<use xlink:href="#c_d41d8cd98f00b204e9800998ecf8427e" x="1856.730469"/>
<use xlink:href="#c_7efa9804c2b4c09a4b614b91fdebee3d" x="1888.517578"/>
<use xlink:href="#c_6a63bda47b2f3da1cec6aadd80692cfe" x="1927.531250"/>
<use xlink:href="#c_fe791a90f5471e2ab20a5ed41a7fa451" x="1955.314453"/>
<use xlink:href="#c_d41d8cd98f00b204e9800998ecf8427e" x="2018.693359"/>
<use xlink:href="#c_a56f7596f19f36c336140607221b43ce" x="2050.480469"/>
<use xlink:href="#c_e96974be642f6eac0427d72f9cec6c19" x="2145.500000"/>
</g>
</g>
</g>
<g id="patch3">
<path style="fill: none; stroke: #000000; stroke-width: 1.000000; stroke-linejoin: round; stroke-linecap: square;  opacity: 1.000000"  d="M180.000000 72.000000L1296.000000 72.000000"/>
</g>
<g id="patch4">
<path style="fill: none; stroke: #000000; stroke-width: 1.000000; stroke-linejoin: round; stroke-linecap: square;  opacity: 1.000000"  d="M1296.000000 648.000000L1296.000000 72.000000"/>
</g>
<g id="patch5">
<path style="fill: none; stroke: #000000; stroke-width: 1.000000; stroke-linejoin: round; stroke-linecap: square;  opacity: 1.000000"  d="M180.000000 648.000000L1296.000000 648.000000"/>
</g>
<g id="patch6">
<path style="fill: none; stroke: #000000; stroke-width: 1.000000; stroke-linejoin: round; stroke-linecap: square;  opacity: 1.000000"  d="M180.000000 648.000000L180.000000 72.000000"/>
</g>
<g id="text15">
<defs>
<path id="c_a469f8ee191679fe73f3b765bd271597" d="M64.406250 -67.281250l0.000000 10.390625q-4.984375 -4.640625 -10.625000 -6.921875q-5.640625 -2.296875 -11.984375 -2.296875q-12.500000 0.000000 -19.140625 7.640625q-6.640625 7.640625 -6.640625 22.093750q0.000000 14.406250 6.640625 22.046875q6.640625 7.640625 19.140625 7.640625q6.343750 0.000000 11.984375 -2.296875q5.640625 -2.296875 10.625000 -6.937500l0.000000 10.312500q-5.171875 3.515625 -10.968750 5.281250q-5.781250 1.750000 -12.218750 1.750000q-16.562500 0.000000 -26.093750 -10.125000q-9.515625 -10.140625 -9.515625 -27.671875q0.000000 -17.578125 9.515625 -27.703125q9.531250 -10.140625 26.093750 -10.140625q6.531250 0.000000 12.312500 1.734375q5.796875 1.734375 10.875000 5.203125"/>
<path id="c_518d586bee075aa0153eaebfcb5ab11f" d="M19.671875 -64.796875l0.000000 27.390625l12.406250 0.000000q6.890625 0.000000 10.640625 -3.562500q3.765625 -3.562500 3.765625 -10.156250q0.000000 -6.546875 -3.765625 -10.109375q-3.750000 -3.562500 -10.640625 -3.562500zM9.812500 -72.906250l22.265625 0.000000q12.265625 0.000000 18.531250 5.546875q6.281250 5.546875 6.281250 16.234375q0.000000 10.796875 -6.281250 16.312500q-6.265625 5.515625 -18.531250 5.515625l-12.406250 0.000000l0.000000 29.296875l-9.859375 0.000000z"/>
<path id="c_f0b2f1db24a99c7a6a1fa56820ca5a8a" d="M8.687500 -72.906250l9.921875 0.000000l0.000000 44.296875q0.000000 11.718750 4.234375 16.875000q4.250000 5.140625 13.781250 5.140625q9.468750 0.000000 13.718750 -5.140625q4.250000 -5.156250 4.250000 -16.875000l0.000000 -44.296875l9.906250 0.000000l0.000000 45.515625q0.000000 14.250000 -7.062500 21.531250q-7.046875 7.281250 -20.812500 7.281250q-13.828125 0.000000 -20.890625 -7.281250q-7.046875 -7.281250 -7.046875 -21.531250z"/>
<path id="c_83c92fcf7184248154f741f54a0382f5" d="M11.718750 -12.406250l10.296875 0.000000l0.000000 8.406250l-8.000000 15.625000l-6.296875 0.000000l4.000000 -15.625000z"/>
<path id="c_4c6532c564269b2c70b230c2e45c01e4" d="M44.390625 -34.187500q3.171875 1.078125 6.171875 4.593750q3.000000 3.515625 6.031250 9.671875l10.015625 19.921875l-10.609375 0.000000l-9.312500 -18.703125q-3.625000 -7.328125 -7.015625 -9.718750q-3.390625 -2.390625 -9.250000 -2.390625l-10.750000 0.000000l0.000000 30.812500l-9.859375 0.000000l0.000000 -72.906250l22.265625 0.000000q12.500000 0.000000 18.656250 5.234375q6.156250 5.218750 6.156250 15.765625q0.000000 6.890625 -3.203125 11.437500q-3.203125 4.531250 -9.296875 6.281250M19.671875 -64.796875l0.000000 25.875000l12.406250 0.000000q7.125000 0.000000 10.765625 -3.296875q3.640625 -3.296875 3.640625 -9.687500q0.000000 -6.390625 -3.640625 -9.640625q-3.640625 -3.250000 -10.765625 -3.250000z"/>
<path id="c_6023715d605f81e6eb43b7f9d77e7c51" d="M34.187500 -63.187500l-13.390625 36.281250l26.812500 0.000000zM28.609375 -72.906250l11.187500 0.000000l27.781250 72.906250l-10.250000 0.000000l-6.640625 -18.703125l-32.859375 0.000000l-6.640625 18.703125l-10.406250 0.000000z"/>
<path id="c_72234ddc5dcad8d05c893ef0371171da" d="M9.812500 -72.906250l14.703125 0.000000l18.593750 49.609375l18.703125 -49.609375l14.703125 0.000000l0.000000 72.906250l-9.625000 0.000000l0.000000 -64.015625l-18.796875 50.000000l-9.906250 0.000000l-18.796875 -50.000000l0.000000 64.015625l-9.578125 0.000000z"/>
<path id="c_b672e4bee30772019085dff1098f516d" d="M53.515625 -70.515625l0.000000 9.625000q-5.609375 -2.687500 -10.593750 -4.000000q-4.984375 -1.328125 -9.625000 -1.328125q-8.046875 0.000000 -12.421875 3.125000q-4.375000 3.125000 -4.375000 8.890625q0.000000 4.843750 2.906250 7.312500q2.906250 2.453125 11.015625 3.968750l5.953125 1.218750q11.031250 2.109375 16.281250 7.406250q5.250000 5.296875 5.250000 14.171875q0.000000 10.609375 -7.109375 16.078125q-7.093750 5.468750 -20.812500 5.468750q-5.171875 0.000000 -11.015625 -1.171875q-5.828125 -1.171875 -12.078125 -3.468750l0.000000 -10.156250q6.000000 3.359375 11.765625 5.078125q5.765625 1.703125 11.328125 1.703125q8.437500 0.000000 13.031250 -3.312500q4.593750 -3.328125 4.593750 -9.484375q0.000000 -5.359375 -3.296875 -8.390625q-3.296875 -3.031250 -10.812500 -4.546875l-6.015625 -1.171875q-11.031250 -2.187500 -15.968750 -6.875000q-4.921875 -4.687500 -4.921875 -13.046875q0.000000 -9.671875 6.812500 -15.234375q6.812500 -5.562500 18.765625 -5.562500q5.140625 0.000000 10.453125 0.937500q5.328125 0.921875 10.890625 2.765625"/>
<path id="c_a61a29e824874b7d7ff806198f94f785" d="M3.328125 -72.906250l9.953125 0.000000l15.328125 61.625000l15.281250 -61.625000l11.093750 0.000000l15.328125 61.625000l15.281250 -61.625000l10.015625 0.000000l-18.312500 72.906250l-12.406250 0.000000l-15.375000 -63.281250l-15.531250 63.281250l-12.406250 0.000000z"/>
</defs>
<g style="fill: #000000; opacity: 1.000000" transform="translate(640.070312,64.093750)scale(0.144000)">
<use xlink:href="#c_a469f8ee191679fe73f3b765bd271597"/>
<use xlink:href="#c_518d586bee075aa0153eaebfcb5ab11f" x="69.824219"/>
<use xlink:href="#c_f0b2f1db24a99c7a6a1fa56820ca5a8a" x="130.126953"/>
<use xlink:href="#c_83c92fcf7184248154f741f54a0382f5" x="203.320312"/>
<use xlink:href="#c_d41d8cd98f00b204e9800998ecf8427e" x="235.107422"/>
<use xlink:href="#c_4c6532c564269b2c70b230c2e45c01e4" x="266.894531"/>
<use xlink:href="#c_6023715d605f81e6eb43b7f9d77e7c51" x="332.376953"/>
<use xlink:href="#c_72234ddc5dcad8d05c893ef0371171da" x="400.785156"/>
<use xlink:href="#c_d41d8cd98f00b204e9800998ecf8427e" x="487.064453"/>
<use xlink:href="#c_01d93a582460e35a7945ca50d148ffeb" x="518.851562"/>
<use xlink:href="#c_fe791a90f5471e2ab20a5ed41a7fa451" x="580.130859"/>
<use xlink:href="#c_d821beae607506e87470f334d9ff47af" x="643.509766"/>
<use xlink:href="#c_d41d8cd98f00b204e9800998ecf8427e" x="706.986328"/>
<use xlink:href="#c_b672e4bee30772019085dff1098f516d" x="738.773438"/>
<use xlink:href="#c_a61a29e824874b7d7ff806198f94f785" x="802.250000"/>
<use xlink:href="#c_6023715d605f81e6eb43b7f9d77e7c51" x="895.626953"/>
<use xlink:href="#c_518d586bee075aa0153eaebfcb5ab11f" x="964.035156"/>
<use xlink:href="#c_d41d8cd98f00b204e9800998ecf8427e" x="1024.337891"/>
<use xlink:href="#c_f0b2f1db24a99c7a6a1fa56820ca5a8a" x="1056.125000"/>
<use xlink:href="#c_8e0810ad13fe20a2a87a2619799b154d" x="1129.318359"/>
<use xlink:href="#c_01d93a582460e35a7945ca50d148ffeb" x="1181.417969"/>
<use xlink:href="#c_e3864de5dabf2f8dd9eee74726882ec1" x="1242.697266"/>
<use xlink:href="#c_0bce5afba2dc6b9024b26277c38ad8e8" x="1306.173828"/>
</g>
</g>
</g>
</g>
</svg>
