<?xml version="1.0" standalone="no"?>
<!DOCTYPE svg PUBLIC "-//W3C//DTD SVG 1.1//EN"
  "http://www.w3.org/Graphics/SVG/1.1/DTD/svg11.dtd">
<!-- Created with matplotlib (http://matplotlib.sourceforge.net/) -->
<svg width="1440pt" height="720pt" viewBox="0 0 1440 720"
   xmlns="http://www.w3.org/2000/svg"
   xmlns:xlink="http://www.w3.org/1999/xlink"
   version="1.1"
   id="svg1">
<g id="figure1">
<g id="patch1">
<path style="fill: #ffffff; stroke: #ffffff; stroke-width: 1.000000; stroke-linejoin: round; stroke-linecap: square;  opacity: 1.000000"  d="M0.000000 720.000000L1440.000000 720.000000L1440.000000 0.000000
L0.000000 0.000000L0.000000 720.000000"/>
</g>
<g id="axes1">
<g id="patch2">
<path style="fill: #ffffff; opacity: 1.000000"  d="M180.000000 648.000000L1296.000000 648.000000L1296.000000 72.000000
L180.000000 72.000000L180.000000 648.000000"/>
</g>
<g id="line2d1">
<defs>
  <clipPath id="pfdf41017d77cccd2c2c141d56d1459a5">
<rect x="180.000000" y="72.000000" width="1116.000000" height="576.000000"/>
  </clipPath>
</defs><path style="fill: none; stroke: #0000ff; stroke-width: 1.000000; stroke-linejoin: round; stroke-linecap: square;  opacity: 1.000000" clip-path="url(#pfdf41017d77cccd2c2c141d56d1459a5)" d="M180.000000 648.000000L187.440000 648.000000L189.300000 643.885714
L191.160000 648.000000L206.040000 648.000000L207.900000 647.177143
L209.760000 648.000000L211.620000 644.708571L213.480000 648.000000
L215.340000 648.000000L217.200000 647.177143L219.060000 644.708571
L220.920000 648.000000L224.640000 648.000000L226.500000 547.611429
L228.360000 484.251429L232.080000 484.251429L233.940000 532.800000
L235.800000 648.000000L237.660000 647.177143L239.520000 648.000000
L241.380000 648.000000L243.240000 549.257143L245.100000 484.251429
L246.960000 483.428571L248.820000 484.251429L250.680000 483.428571
L252.540000 483.428571L254.400000 484.251429L256.260000 483.428571
L258.120000 484.251429L263.700000 484.251429L265.560000 499.885714
L267.420000 648.000000L271.140000 648.000000L273.000000 647.177143
L274.860000 648.000000L282.300000 648.000000L286.020000 488.365714
L287.880000 487.542857L319.500000 487.542857L321.360000 484.251429
L323.220000 485.074286L325.080000 489.188571L326.940000 486.720000
L328.800000 489.188571L334.380000 489.188571L336.240000 485.074286
L338.100000 489.188571L362.280000 489.188571L364.140000 488.365714
L366.000000 488.365714L367.860000 489.188571L377.160000 489.188571
L379.020000 488.365714L380.880000 489.188571L384.600000 489.188571
L386.460000 484.251429L388.320000 487.542857L392.040000 487.542857
L395.760000 489.188571L397.620000 483.428571L399.480000 489.188571
L401.340000 488.365714L403.200000 488.365714L405.060000 489.188571
L406.920000 489.188571L408.780000 488.365714L410.640000 488.365714
L412.500000 489.188571L414.360000 487.542857L416.220000 489.188571
L418.080000 488.365714L419.940000 504.822857L421.800000 485.074286
L423.660000 489.188571L427.380000 489.188571L429.240000 487.542857
L431.100000 487.542857L432.960000 489.188571L434.820000 485.074286
L436.680000 489.188571L445.980000 489.188571L447.840000 488.365714
L449.700000 489.188571L451.560000 488.365714L453.420000 489.188571
L455.280000 489.188571L457.140000 488.365714L459.000000 489.188571
L460.860000 489.188571L462.720000 488.365714L464.580000 489.188571
L488.760000 489.188571L490.620000 488.365714L492.480000 489.188571
L518.520000 489.188571L520.380000 487.542857L522.240000 485.074286
L524.100000 488.365714L525.960000 595.337143L527.820000 647.177143
L529.680000 648.000000L531.540000 648.000000L533.400000 141.120000
L535.260000 139.474286L542.700000 139.474286L544.560000 136.182857
L546.420000 141.120000L548.280000 140.297143L550.140000 140.297143
L552.000000 139.474286L565.020000 139.474286L566.880000 189.668571
L568.740000 139.474286L570.600000 138.651429L585.480000 138.651429
L587.340000 137.828571L604.080000 137.828571L605.940000 137.005714
L626.400000 137.005714L628.260000 188.022857L630.120000 137.005714
L643.140000 137.005714L645.000000 137.828571L646.860000 139.474286
L648.720000 139.474286L650.580000 141.120000L663.600000 141.120000
L665.460000 140.297143L669.180000 140.297143L671.040000 139.474286
L672.900000 137.828571L674.760000 141.120000L676.620000 140.297143
L678.480000 140.297143L680.340000 141.120000L682.200000 138.651429
L684.060000 141.120000L687.780000 141.120000L689.640000 191.314286
L691.500000 141.120000L747.300000 141.120000L749.160000 191.314286
L751.020000 141.120000L806.820000 141.120000L808.680000 191.314286
L810.540000 141.120000L832.860000 141.120000L834.720000 140.297143
L836.580000 141.120000L868.200000 141.120000L870.060000 191.314286
L871.920000 141.120000L927.720000 141.120000L929.580000 191.314286
L931.440000 141.120000L989.100000 141.120000L990.960000 191.314286
L992.820000 141.120000L1022.580000 141.120000L1024.440000 140.297143
L1026.300000 141.120000L1048.620000 141.120000L1050.480000 191.314286
L1052.340000 141.120000L1054.200000 141.120000L1056.060000 139.474286
L1057.920000 138.651429L1059.780000 140.297143L1061.640000 135.360000
L1063.500000 141.120000L1065.360000 140.297143L1067.220000 140.297143
L1069.080000 141.120000L1074.660000 141.120000L1076.520000 134.537143
L1078.380000 135.360000L1080.240000 141.120000L1082.100000 140.297143
L1083.960000 140.297143L1085.820000 141.120000L1087.680000 140.297143
L1089.540000 140.297143L1091.400000 141.120000L1093.260000 140.297143
L1095.120000 141.120000L1096.980000 140.297143L1098.840000 140.297143
L1100.700000 141.120000L1102.560000 140.297143L1104.420000 140.297143
L1106.280000 141.120000L1108.140000 141.120000L1110.000000 191.314286
L1111.860000 141.120000L1115.580000 139.474286L1117.440000 136.182857
L1119.300000 648.000000L1121.160000 645.531429L1123.020000 647.177143
L1124.880000 643.062857L1126.740000 648.000000L1178.820000 648.000000
L1180.680000 643.062857L1182.540000 648.000000L1186.260000 648.000000
L1188.120000 643.062857L1189.980000 648.000000L1208.580000 648.000000
L1210.440000 647.177143L1212.300000 647.177143L1214.160000 643.062857
L1216.020000 648.000000L1284.840000 648.000000L1286.700000 647.177143
L1288.560000 647.177143L1290.420000 648.000000L1292.280000 642.240000
L1294.140000 648.000000L1294.140000 648.000000"/>
</g>
<g id="line2d2">
<path style="fill: none; stroke: #ff0000; stroke-width: 1.000000; stroke-linejoin: round; stroke-linecap: square;  opacity: 1.000000" clip-path="url(#pfdf41017d77cccd2c2c141d56d1459a5)" d="M180.000000 648.000000L226.500000 648.000000L228.360000 647.177143
L233.940000 647.177143L235.800000 648.000000L237.660000 646.354286
L239.520000 648.000000L243.240000 648.000000L245.100000 647.177143
L265.560000 647.177143L267.420000 648.000000L271.140000 648.000000
L273.000000 647.177143L274.860000 648.000000L276.720000 647.177143
L278.580000 648.000000L282.300000 648.000000L286.020000 488.365714
L317.640000 488.365714L319.500000 489.188571L321.360000 488.365714
L323.220000 488.365714L325.080000 489.188571L334.380000 489.188571
L336.240000 488.365714L338.100000 489.188571L347.400000 489.188571
L349.260000 488.365714L351.120000 489.188571L362.280000 489.188571
L364.140000 488.365714L366.000000 488.365714L367.860000 489.188571
L384.600000 489.188571L386.460000 488.365714L390.180000 488.365714
L392.040000 489.188571L393.900000 488.365714L395.760000 489.188571
L397.620000 488.365714L399.480000 489.188571L403.200000 489.188571
L405.060000 488.365714L406.920000 489.188571L408.780000 488.365714
L410.640000 488.365714L412.500000 489.188571L418.080000 489.188571
L419.940000 504.822857L421.800000 489.188571L427.380000 489.188571
L429.240000 488.365714L431.100000 489.188571L432.960000 489.188571
L434.820000 488.365714L436.680000 489.188571L444.120000 489.188571
L445.980000 488.365714L447.840000 489.188571L449.700000 489.188571
L451.560000 488.365714L453.420000 489.188571L459.000000 489.188571
L460.860000 488.365714L462.720000 489.188571L514.800000 489.188571
L516.660000 488.365714L518.520000 489.188571L520.380000 488.365714
L522.240000 489.188571L524.100000 488.365714L525.960000 600.274286
L527.820000 648.000000L531.540000 648.000000L533.400000 141.120000
L535.260000 140.297143L544.560000 140.297143L546.420000 141.120000
L548.280000 140.297143L550.140000 141.120000L552.000000 140.297143
L553.860000 141.120000L565.020000 141.120000L566.880000 191.314286
L568.740000 141.120000L570.600000 141.120000L572.460000 140.297143
L574.320000 141.120000L605.940000 141.120000L607.800000 140.297143
L611.520000 140.297143L613.380000 141.120000L615.240000 141.120000
L617.100000 140.297143L624.540000 140.297143L626.400000 141.120000
L628.260000 191.314286L630.120000 141.120000L631.980000 141.120000
L633.840000 140.297143L635.700000 141.120000L637.560000 140.297143
L639.420000 141.120000L641.280000 141.120000L643.140000 140.297143
L648.720000 140.297143L650.580000 141.120000L663.600000 141.120000
L665.460000 140.297143L667.320000 141.120000L669.180000 140.297143
L672.900000 140.297143L674.760000 141.120000L676.620000 140.297143
L678.480000 140.297143L680.340000 141.120000L682.200000 140.297143
L684.060000 140.297143L685.920000 141.120000L687.780000 141.120000
L689.640000 191.314286L691.500000 141.120000L736.140000 141.120000
L738.000000 140.297143L739.860000 140.297143L741.720000 141.120000
L747.300000 141.120000L749.160000 191.314286L751.020000 141.120000
L791.940000 141.120000L793.800000 140.297143L795.660000 141.120000
L806.820000 141.120000L808.680000 191.314286L810.540000 141.120000
L832.860000 141.120000L834.720000 140.297143L836.580000 141.120000
L847.740000 141.120000L849.600000 140.297143L851.460000 141.120000
L868.200000 141.120000L870.060000 191.314286L871.920000 141.120000
L903.540000 141.120000L905.400000 140.297143L907.260000 141.120000
L927.720000 141.120000L929.580000 191.314286L931.440000 141.120000
L959.340000 141.120000L961.200000 140.297143L963.060000 141.120000
L989.100000 141.120000L990.960000 191.314286L992.820000 141.120000
L1015.140000 141.120000L1017.000000 140.297143L1018.860000 141.120000
L1048.620000 141.120000L1050.480000 191.314286L1052.340000 141.120000
L1054.200000 141.120000L1056.060000 140.297143L1057.920000 141.120000
L1059.780000 140.297143L1061.640000 140.297143L1063.500000 141.120000
L1070.940000 141.120000L1072.800000 140.297143L1074.660000 141.120000
L1076.520000 140.297143L1078.380000 140.297143L1080.240000 141.120000
L1095.120000 141.120000L1096.980000 140.297143L1098.840000 141.120000
L1108.140000 141.120000L1110.000000 191.314286L1111.860000 141.120000
L1113.720000 141.120000L1115.580000 140.297143L1117.440000 140.297143
L1119.300000 648.000000L1294.140000 648.000000L1294.140000 648.000000"/>
</g>
<g id="matplotlib.axis1">
<g id="xtick1">
<g id="line2d3">
<defs><path id="m30e32995789d870ad79a2e54c91cf9c6" d="M0.000000 0.000000L0.000000 -4.000000"/></defs>
<g ><use style="fill: none; stroke: #000000; stroke-width: 0.500000; stroke-linejoin: round; stroke-linecap: butt;  opacity: 1.000000" xlink:href="#m30e32995789d870ad79a2e54c91cf9c6" x="180.000000" y="648.000000"/>
</g></g>
<g id="line2d4">
<defs><path id="m9281cae24120827b11d5ea8a7ad3e96b" d="M0.000000 0.000000L0.000000 4.000000"/></defs>
<g ><use style="fill: none; stroke: #000000; stroke-width: 0.500000; stroke-linejoin: round; stroke-linecap: butt;  opacity: 1.000000" xlink:href="#m9281cae24120827b11d5ea8a7ad3e96b" x="180.000000" y="72.000000"/>
</g></g>
<g id="text1">
<defs>
<path id="c_7a2040fe3b94fcd41d0a72c84e93b115" d="M31.781250 -66.406250q-7.609375 0.000000 -11.453125 7.500000q-3.828125 7.484375 -3.828125 22.531250q0.000000 14.984375 3.828125 22.484375q3.843750 7.500000 11.453125 7.500000q7.671875 0.000000 11.500000 -7.500000q3.843750 -7.500000 3.843750 -22.484375q0.000000 -15.046875 -3.843750 -22.531250q-3.828125 -7.500000 -11.500000 -7.500000M31.781250 -74.218750q12.265625 0.000000 18.734375 9.703125q6.468750 9.687500 6.468750 28.140625q0.000000 18.406250 -6.468750 28.109375q-6.468750 9.687500 -18.734375 9.687500q-12.250000 0.000000 -18.718750 -9.687500q-6.468750 -9.703125 -6.468750 -28.109375q0.000000 -18.453125 6.468750 -28.140625q6.468750 -9.703125 18.718750 -9.703125"/>
</defs>
<g style="fill: #000000; opacity: 1.000000" transform="translate(176.976562,660.906250)scale(0.120000)">
<use xlink:href="#c_7a2040fe3b94fcd41d0a72c84e93b115"/>
</g>
</g>
</g>
<g id="xtick2">
<g id="line2d5">
<g ><use style="fill: none; stroke: #000000; stroke-width: 0.500000; stroke-linejoin: round; stroke-linecap: butt;  opacity: 1.000000" xlink:href="#m30e32995789d870ad79a2e54c91cf9c6" x="366.000000" y="648.000000"/>
</g></g>
<g id="line2d6">
<g ><use style="fill: none; stroke: #000000; stroke-width: 0.500000; stroke-linejoin: round; stroke-linecap: butt;  opacity: 1.000000" xlink:href="#m9281cae24120827b11d5ea8a7ad3e96b" x="366.000000" y="72.000000"/>
</g></g>
<g id="text2">
<defs>
<path id="c_42baa63129a918535c52adb20d687ea7" d="M12.406250 -8.296875l16.109375 0.000000l0.000000 -55.625000l-17.531250 3.515625l0.000000 -8.984375l17.437500 -3.515625l9.859375 0.000000l0.000000 64.609375l16.109375 0.000000l0.000000 8.296875l-41.984375 0.000000z"/>
</defs>
<g style="fill: #000000; opacity: 1.000000" transform="translate(355.593750,660.906250)scale(0.120000)">
<use xlink:href="#c_42baa63129a918535c52adb20d687ea7"/>
<use xlink:href="#c_7a2040fe3b94fcd41d0a72c84e93b115" x="63.623047"/>
<use xlink:href="#c_7a2040fe3b94fcd41d0a72c84e93b115" x="127.246094"/>
</g>
</g>
</g>
<g id="xtick3">
<g id="line2d7">
<g ><use style="fill: none; stroke: #000000; stroke-width: 0.500000; stroke-linejoin: round; stroke-linecap: butt;  opacity: 1.000000" xlink:href="#m30e32995789d870ad79a2e54c91cf9c6" x="552.000000" y="648.000000"/>
</g></g>
<g id="line2d8">
<g ><use style="fill: none; stroke: #000000; stroke-width: 0.500000; stroke-linejoin: round; stroke-linecap: butt;  opacity: 1.000000" xlink:href="#m9281cae24120827b11d5ea8a7ad3e96b" x="552.000000" y="72.000000"/>
</g></g>
<g id="text3">
<defs>
<path id="c_ed3f3ed3ebfbd18bcb9c012009a68ad1" d="M19.187500 -8.296875l34.421875 0.000000l0.000000 8.296875l-46.281250 0.000000l0.000000 -8.296875q5.609375 -5.812500 15.296875 -15.593750q9.703125 -9.796875 12.187500 -12.640625q4.734375 -5.312500 6.609375 -9.000000q1.890625 -3.687500 1.890625 -7.250000q0.000000 -5.812500 -4.078125 -9.468750q-4.078125 -3.671875 -10.625000 -3.671875q-4.640625 0.000000 -9.796875 1.609375q-5.140625 1.609375 -11.000000 4.890625l0.000000 -9.968750q5.953125 -2.390625 11.125000 -3.609375q5.187500 -1.218750 9.484375 -1.218750q11.328125 0.000000 18.062500 5.671875q6.734375 5.656250 6.734375 15.125000q0.000000 4.500000 -1.687500 8.531250q-1.671875 4.015625 -6.125000 9.484375q-1.218750 1.421875 -7.765625 8.187500q-6.531250 6.765625 -18.453125 18.921875"/>
</defs>
<g style="fill: #000000; opacity: 1.000000" transform="translate(541.375000,660.906250)scale(0.120000)">
<use xlink:href="#c_ed3f3ed3ebfbd18bcb9c012009a68ad1"/>
<use xlink:href="#c_7a2040fe3b94fcd41d0a72c84e93b115" x="63.623047"/>
<use xlink:href="#c_7a2040fe3b94fcd41d0a72c84e93b115" x="127.246094"/>
</g>
</g>
</g>
<g id="xtick4">
<g id="line2d9">
<g ><use style="fill: none; stroke: #000000; stroke-width: 0.500000; stroke-linejoin: round; stroke-linecap: butt;  opacity: 1.000000" xlink:href="#m30e32995789d870ad79a2e54c91cf9c6" x="738.000000" y="648.000000"/>
</g></g>
<g id="line2d10">
<g ><use style="fill: none; stroke: #000000; stroke-width: 0.500000; stroke-linejoin: round; stroke-linecap: butt;  opacity: 1.000000" xlink:href="#m9281cae24120827b11d5ea8a7ad3e96b" x="738.000000" y="72.000000"/>
</g></g>
<g id="text4">
<defs>
<path id="c_3dcfa38a02242cb63ec6726c6e70be7a" d="M40.578125 -39.312500q7.078125 1.515625 11.046875 6.312500q3.984375 4.781250 3.984375 11.812500q0.000000 10.781250 -7.421875 16.703125q-7.421875 5.906250 -21.093750 5.906250q-4.578125 0.000000 -9.437500 -0.906250q-4.859375 -0.906250 -10.031250 -2.718750l0.000000 -9.515625q4.093750 2.390625 8.968750 3.609375q4.890625 1.218750 10.218750 1.218750q9.265625 0.000000 14.125000 -3.656250q4.859375 -3.656250 4.859375 -10.640625q0.000000 -6.453125 -4.515625 -10.078125q-4.515625 -3.640625 -12.562500 -3.640625l-8.500000 0.000000l0.000000 -8.109375l8.890625 0.000000q7.265625 0.000000 11.125000 -2.906250q3.859375 -2.906250 3.859375 -8.375000q0.000000 -5.609375 -3.984375 -8.609375q-3.968750 -3.015625 -11.390625 -3.015625q-4.062500 0.000000 -8.703125 0.890625q-4.640625 0.875000 -10.203125 2.718750l0.000000 -8.781250q5.625000 -1.562500 10.531250 -2.343750q4.906250 -0.781250 9.250000 -0.781250q11.234375 0.000000 17.765625 5.109375q6.546875 5.093750 6.546875 13.781250q0.000000 6.062500 -3.468750 10.234375q-3.468750 4.171875 -9.859375 5.781250"/>
</defs>
<g style="fill: #000000; opacity: 1.000000" transform="translate(727.398438,660.906250)scale(0.120000)">
<use xlink:href="#c_3dcfa38a02242cb63ec6726c6e70be7a"/>
<use xlink:href="#c_7a2040fe3b94fcd41d0a72c84e93b115" x="63.623047"/>
<use xlink:href="#c_7a2040fe3b94fcd41d0a72c84e93b115" x="127.246094"/>
</g>
</g>
</g>
<g id="xtick5">
<g id="line2d11">
<g ><use style="fill: none; stroke: #000000; stroke-width: 0.500000; stroke-linejoin: round; stroke-linecap: butt;  opacity: 1.000000" xlink:href="#m30e32995789d870ad79a2e54c91cf9c6" x="924.000000" y="648.000000"/>
</g></g>
<g id="line2d12">
<g ><use style="fill: none; stroke: #000000; stroke-width: 0.500000; stroke-linejoin: round; stroke-linecap: butt;  opacity: 1.000000" xlink:href="#m9281cae24120827b11d5ea8a7ad3e96b" x="924.000000" y="72.000000"/>
</g></g>
<g id="text5">
<defs>
<path id="c_a0416418d96557a09b8c1332d34883ba" d="M37.796875 -64.312500l-24.906250 38.921875l24.906250 0.000000zM35.203125 -72.906250l12.406250 0.000000l0.000000 47.515625l10.406250 0.000000l0.000000 8.203125l-10.406250 0.000000l0.000000 17.187500l-9.812500 0.000000l0.000000 -17.187500l-32.906250 0.000000l0.000000 -9.515625z"/>
</defs>
<g style="fill: #000000; opacity: 1.000000" transform="translate(913.234375,660.906250)scale(0.120000)">
<use xlink:href="#c_a0416418d96557a09b8c1332d34883ba"/>
<use xlink:href="#c_7a2040fe3b94fcd41d0a72c84e93b115" x="63.623047"/>
<use xlink:href="#c_7a2040fe3b94fcd41d0a72c84e93b115" x="127.246094"/>
</g>
</g>
</g>
<g id="xtick6">
<g id="line2d13">
<g ><use style="fill: none; stroke: #000000; stroke-width: 0.500000; stroke-linejoin: round; stroke-linecap: butt;  opacity: 1.000000" xlink:href="#m30e32995789d870ad79a2e54c91cf9c6" x="1110.000000" y="648.000000"/>
</g></g>
<g id="line2d14">
<g ><use style="fill: none; stroke: #000000; stroke-width: 0.500000; stroke-linejoin: round; stroke-linecap: butt;  opacity: 1.000000" xlink:href="#m9281cae24120827b11d5ea8a7ad3e96b" x="1110.000000" y="72.000000"/>
</g></g>
<g id="text6">
<defs>
<path id="c_1260a2df50f305f3db244e29828f968e" d="M10.796875 -72.906250l38.718750 0.000000l0.000000 8.312500l-29.687500 0.000000l0.000000 17.859375q2.140625 -0.734375 4.281250 -1.093750q2.156250 -0.359375 4.312500 -0.359375q12.203125 0.000000 19.328125 6.687500q7.140625 6.687500 7.140625 18.109375q0.000000 11.765625 -7.328125 18.296875q-7.328125 6.515625 -20.656250 6.515625q-4.593750 0.000000 -9.359375 -0.781250q-4.750000 -0.781250 -9.828125 -2.343750l0.000000 -9.921875q4.390625 2.390625 9.078125 3.562500q4.687500 1.171875 9.906250 1.171875q8.453125 0.000000 13.375000 -4.437500q4.937500 -4.437500 4.937500 -12.062500q0.000000 -7.609375 -4.937500 -12.046875q-4.921875 -4.453125 -13.375000 -4.453125q-3.953125 0.000000 -7.890625 0.875000q-3.921875 0.875000 -8.015625 2.734375z"/>
</defs>
<g style="fill: #000000; opacity: 1.000000" transform="translate(1099.398438,660.906250)scale(0.120000)">
<use xlink:href="#c_1260a2df50f305f3db244e29828f968e"/>
<use xlink:href="#c_7a2040fe3b94fcd41d0a72c84e93b115" x="63.623047"/>
<use xlink:href="#c_7a2040fe3b94fcd41d0a72c84e93b115" x="127.246094"/>
</g>
</g>
</g>
<g id="xtick7">
<g id="line2d15">
<g ><use style="fill: none; stroke: #000000; stroke-width: 0.500000; stroke-linejoin: round; stroke-linecap: butt;  opacity: 1.000000" xlink:href="#m30e32995789d870ad79a2e54c91cf9c6" x="1296.000000" y="648.000000"/>
</g></g>
<g id="line2d16">
<g ><use style="fill: none; stroke: #000000; stroke-width: 0.500000; stroke-linejoin: round; stroke-linecap: butt;  opacity: 1.000000" xlink:href="#m9281cae24120827b11d5ea8a7ad3e96b" x="1296.000000" y="72.000000"/>
</g></g>
<g id="text7">
<defs>
<path id="c_cc8d6d580d1b10c8632f7a42cd53db8a" d="M33.015625 -40.375000q-6.640625 0.000000 -10.531250 4.546875q-3.875000 4.531250 -3.875000 12.437500q0.000000 7.859375 3.875000 12.437500q3.890625 4.562500 10.531250 4.562500q6.640625 0.000000 10.515625 -4.562500q3.875000 -4.578125 3.875000 -12.437500q0.000000 -7.906250 -3.875000 -12.437500q-3.875000 -4.546875 -10.515625 -4.546875M52.593750 -71.296875l0.000000 8.984375q-3.718750 -1.750000 -7.500000 -2.671875q-3.781250 -0.937500 -7.500000 -0.937500q-9.765625 0.000000 -14.921875 6.593750q-5.140625 6.593750 -5.875000 19.921875q2.875000 -4.250000 7.218750 -6.515625q4.359375 -2.265625 9.578125 -2.265625q10.984375 0.000000 17.359375 6.671875q6.375000 6.656250 6.375000 18.125000q0.000000 11.234375 -6.640625 18.031250q-6.640625 6.781250 -17.671875 6.781250q-12.656250 0.000000 -19.343750 -9.687500q-6.687500 -9.703125 -6.687500 -28.109375q0.000000 -17.281250 8.203125 -27.562500q8.203125 -10.281250 22.015625 -10.281250q3.718750 0.000000 7.500000 0.734375q3.781250 0.734375 7.890625 2.187500"/>
</defs>
<g style="fill: #000000; opacity: 1.000000" transform="translate(1285.359375,660.906250)scale(0.120000)">
<use xlink:href="#c_cc8d6d580d1b10c8632f7a42cd53db8a"/>
<use xlink:href="#c_7a2040fe3b94fcd41d0a72c84e93b115" x="63.623047"/>
<use xlink:href="#c_7a2040fe3b94fcd41d0a72c84e93b115" x="127.246094"/>
</g>
</g>
</g>
<g id="text8">
<defs>
<path id="c_0f8c41144cfbf448378cb6fd1cc8e549" d="M18.312500 -70.218750l0.000000 15.531250l18.500000 0.000000l0.000000 6.984375l-18.500000 0.000000l0.000000 29.687500q0.000000 6.687500 1.828125 8.593750q1.828125 1.906250 7.453125 1.906250l9.218750 0.000000l0.000000 7.515625l-9.218750 0.000000q-10.406250 0.000000 -14.359375 -3.875000q-3.953125 -3.890625 -3.953125 -14.140625l0.000000 -29.687500l-6.593750 0.000000l0.000000 -6.984375l6.593750 0.000000l0.000000 -15.531250z"/>
<path id="c_6a63bda47b2f3da1cec6aadd80692cfe" d="M9.421875 -54.687500l8.984375 0.000000l0.000000 54.687500l-8.984375 0.000000zM9.421875 -75.984375l8.984375 0.000000l0.000000 11.390625l-8.984375 0.000000z"/>
<path id="c_4653c6dfde66c7610eae0911760d3490" d="M52.000000 -44.187500q3.375000 -6.062500 8.062500 -8.937500q4.687500 -2.875000 11.031250 -2.875000q8.546875 0.000000 13.187500 5.984375q4.640625 5.968750 4.640625 17.000000l0.000000 33.015625l-9.031250 0.000000l0.000000 -32.718750q0.000000 -7.859375 -2.796875 -11.656250q-2.781250 -3.812500 -8.484375 -3.812500q-6.984375 0.000000 -11.046875 4.640625q-4.046875 4.625000 -4.046875 12.640625l0.000000 30.906250l-9.031250 0.000000l0.000000 -32.718750q0.000000 -7.906250 -2.781250 -11.687500q-2.781250 -3.781250 -8.593750 -3.781250q-6.890625 0.000000 -10.953125 4.656250q-4.046875 4.656250 -4.046875 12.625000l0.000000 30.906250l-9.031250 0.000000l0.000000 -54.687500l9.031250 0.000000l0.000000 8.500000q3.078125 -5.031250 7.375000 -7.421875q4.296875 -2.390625 10.203125 -2.390625q5.968750 0.000000 10.140625 3.031250q4.171875 3.015625 6.171875 8.781250"/>
<path id="c_0bce5afba2dc6b9024b26277c38ad8e8" d="M56.203125 -29.593750l0.000000 4.390625l-41.312500 0.000000q0.593750 9.281250 5.593750 14.140625q5.000000 4.859375 13.937500 4.859375q5.171875 0.000000 10.031250 -1.265625q4.859375 -1.265625 9.656250 -3.812500l0.000000 8.500000q-4.843750 2.046875 -9.921875 3.125000q-5.078125 1.078125 -10.296875 1.078125q-13.093750 0.000000 -20.734375 -7.609375q-7.640625 -7.625000 -7.640625 -20.625000q0.000000 -13.421875 7.250000 -21.296875q7.250000 -7.890625 19.562500 -7.890625q11.031250 0.000000 17.453125 7.109375q6.421875 7.093750 6.421875 19.296875M47.218750 -32.234375q-0.093750 -7.359375 -4.125000 -11.750000q-4.031250 -4.406250 -10.671875 -4.406250q-7.515625 0.000000 -12.031250 4.250000q-4.515625 4.250000 -5.203125 11.968750z"/>
<path id="c_d41d8cd98f00b204e9800998ecf8427e" d=""/>
<path id="c_fe791a90f5471e2ab20a5ed41a7fa451" d="M54.890625 -33.015625l0.000000 33.015625l-8.984375 0.000000l0.000000 -32.718750q0.000000 -7.765625 -3.031250 -11.609375q-3.031250 -3.859375 -9.078125 -3.859375q-7.281250 0.000000 -11.484375 4.640625q-4.203125 4.625000 -4.203125 12.640625l0.000000 30.906250l-9.031250 0.000000l0.000000 -54.687500l9.031250 0.000000l0.000000 8.500000q3.234375 -4.937500 7.593750 -7.375000q4.375000 -2.437500 10.093750 -2.437500q9.421875 0.000000 14.250000 5.828125q4.843750 5.828125 4.843750 17.156250"/>
<path id="c_8e0810ad13fe20a2a87a2619799b154d" d="M44.281250 -53.078125l0.000000 8.500000q-3.796875 -1.953125 -7.906250 -2.921875q-4.093750 -0.984375 -8.500000 -0.984375q-6.687500 0.000000 -10.031250 2.046875q-3.343750 2.046875 -3.343750 6.156250q0.000000 3.125000 2.390625 4.906250q2.390625 1.781250 9.625000 3.390625l3.078125 0.687500q9.562500 2.046875 13.593750 5.781250q4.031250 3.734375 4.031250 10.421875q0.000000 7.625000 -6.031250 12.078125q-6.031250 4.437500 -16.578125 4.437500q-4.390625 0.000000 -9.156250 -0.859375q-4.765625 -0.859375 -10.031250 -2.562500l0.000000 -9.281250q4.984375 2.593750 9.812500 3.890625q4.828125 1.281250 9.578125 1.281250q6.343750 0.000000 9.750000 -2.171875q3.421875 -2.171875 3.421875 -6.125000q0.000000 -3.656250 -2.468750 -5.609375q-2.453125 -1.953125 -10.812500 -3.765625l-3.125000 -0.734375q-8.343750 -1.750000 -12.062500 -5.390625q-3.703125 -3.640625 -3.703125 -9.984375q0.000000 -7.718750 5.468750 -11.906250q5.468750 -4.203125 15.531250 -4.203125q4.968750 0.000000 9.359375 0.734375q4.406250 0.718750 8.109375 2.187500"/>
<path id="c_d650c37394b681142a10dfc54356d478" d="M48.781250 -52.593750l0.000000 8.406250q-3.812500 -2.109375 -7.640625 -3.156250q-3.828125 -1.046875 -7.734375 -1.046875q-8.750000 0.000000 -13.593750 5.546875q-4.828125 5.531250 -4.828125 15.546875q0.000000 10.015625 4.828125 15.562500q4.843750 5.531250 13.593750 5.531250q3.906250 0.000000 7.734375 -1.046875q3.828125 -1.046875 7.640625 -3.156250l0.000000 8.312500q-3.765625 1.750000 -7.796875 2.625000q-4.015625 0.890625 -8.562500 0.890625q-12.359375 0.000000 -19.640625 -7.765625q-7.265625 -7.765625 -7.265625 -20.953125q0.000000 -13.375000 7.343750 -21.031250q7.359375 -7.671875 20.156250 -7.671875q4.140625 0.000000 8.093750 0.859375q3.953125 0.843750 7.671875 2.546875"/>
<path id="c_f05dd90d41f04bb96ef1ca503cc2044b" d="M30.609375 -48.390625q-7.218750 0.000000 -11.421875 5.640625q-4.203125 5.640625 -4.203125 15.453125q0.000000 9.812500 4.171875 15.453125q4.187500 5.640625 11.453125 5.640625q7.187500 0.000000 11.375000 -5.656250q4.203125 -5.671875 4.203125 -15.437500q0.000000 -9.718750 -4.203125 -15.406250q-4.187500 -5.687500 -11.375000 -5.687500M30.609375 -56.000000q11.718750 0.000000 18.406250 7.625000q6.703125 7.609375 6.703125 21.078125q0.000000 13.421875 -6.703125 21.078125q-6.687500 7.640625 -18.406250 7.640625q-11.765625 0.000000 -18.437500 -7.640625q-6.656250 -7.656250 -6.656250 -21.078125q0.000000 -13.468750 6.656250 -21.078125q6.671875 -7.625000 18.437500 -7.625000"/>
<path id="c_d821beae607506e87470f334d9ff47af" d="M45.406250 -46.390625l0.000000 -29.593750l8.984375 0.000000l0.000000 75.984375l-8.984375 0.000000l0.000000 -8.203125q-2.828125 4.875000 -7.156250 7.250000q-4.312500 2.375000 -10.375000 2.375000q-9.906250 0.000000 -16.140625 -7.906250q-6.218750 -7.921875 -6.218750 -20.812500q0.000000 -12.890625 6.218750 -20.796875q6.234375 -7.906250 16.140625 -7.906250q6.062500 0.000000 10.375000 2.375000q4.328125 2.359375 7.156250 7.234375M14.796875 -27.296875q0.000000 9.906250 4.078125 15.546875q4.078125 5.640625 11.203125 5.640625q7.125000 0.000000 11.218750 -5.640625q4.109375 -5.640625 4.109375 -15.546875q0.000000 -9.906250 -4.109375 -15.546875q-4.093750 -5.640625 -11.218750 -5.640625q-7.125000 0.000000 -11.203125 5.640625q-4.078125 5.640625 -4.078125 15.546875"/>
</defs>
<g style="fill: #000000; opacity: 1.000000" transform="translate(690.382812,675.203125)scale(0.120000)">
<use xlink:href="#c_0f8c41144cfbf448378cb6fd1cc8e549"/>
<use xlink:href="#c_6a63bda47b2f3da1cec6aadd80692cfe" x="39.208984"/>
<use xlink:href="#c_4653c6dfde66c7610eae0911760d3490" x="66.992188"/>
<use xlink:href="#c_0bce5afba2dc6b9024b26277c38ad8e8" x="164.404297"/>
<use xlink:href="#c_d41d8cd98f00b204e9800998ecf8427e" x="225.927734"/>
<use xlink:href="#c_6a63bda47b2f3da1cec6aadd80692cfe" x="257.714844"/>
<use xlink:href="#c_fe791a90f5471e2ab20a5ed41a7fa451" x="285.498047"/>
<use xlink:href="#c_d41d8cd98f00b204e9800998ecf8427e" x="348.876953"/>
<use xlink:href="#c_8e0810ad13fe20a2a87a2619799b154d" x="380.664062"/>
<use xlink:href="#c_0bce5afba2dc6b9024b26277c38ad8e8" x="432.763672"/>
<use xlink:href="#c_d650c37394b681142a10dfc54356d478" x="494.287109"/>
<use xlink:href="#c_f05dd90d41f04bb96ef1ca503cc2044b" x="549.267578"/>
<use xlink:href="#c_fe791a90f5471e2ab20a5ed41a7fa451" x="610.449219"/>
<use xlink:href="#c_d821beae607506e87470f334d9ff47af" x="673.828125"/>
<use xlink:href="#c_0bce5afba2dc6b9024b26277c38ad8e8" x="737.304688"/>
</g>
</g>
</g>
<g id="matplotlib.axis2">
<g id="ytick1">
<g id="line2d17">
<defs><path id="m3400efa6b1638b3fea9e19e898273957" d="M0.000000 0.000000L4.000000 0.000000"/></defs>
<g ><use style="fill: none; stroke: #000000; stroke-width: 0.500000; stroke-linejoin: round; stroke-linecap: butt;  opacity: 1.000000" xlink:href="#m3400efa6b1638b3fea9e19e898273957" x="180.000000" y="648.000000"/>
</g></g>
<g id="line2d18">
<defs><path id="m20b58b2501143cb5e0a5e8f1ef6f1643" d="M0.000000 0.000000L-4.000000 0.000000"/></defs>
<g ><use style="fill: none; stroke: #000000; stroke-width: 0.500000; stroke-linejoin: round; stroke-linecap: butt;  opacity: 1.000000" xlink:href="#m20b58b2501143cb5e0a5e8f1ef6f1643" x="1296.000000" y="648.000000"/>
</g></g>
<g id="text9">
<g style="fill: #000000; opacity: 1.000000" transform="translate(169.953125,652.367188)scale(0.120000)">
<use xlink:href="#c_7a2040fe3b94fcd41d0a72c84e93b115"/>
</g>
</g>
</g>
<g id="ytick2">
<g id="line2d19">
<g ><use style="fill: none; stroke: #000000; stroke-width: 0.500000; stroke-linejoin: round; stroke-linecap: butt;  opacity: 1.000000" xlink:href="#m3400efa6b1638b3fea9e19e898273957" x="180.000000" y="565.714286"/>
</g></g>
<g id="line2d20">
<g ><use style="fill: none; stroke: #000000; stroke-width: 0.500000; stroke-linejoin: round; stroke-linecap: butt;  opacity: 1.000000" xlink:href="#m20b58b2501143cb5e0a5e8f1ef6f1643" x="1296.000000" y="565.714286"/>
</g></g>
<g id="text10">
<g style="fill: #000000; opacity: 1.000000" transform="translate(155.187500,570.081473)scale(0.120000)">
<use xlink:href="#c_42baa63129a918535c52adb20d687ea7"/>
<use xlink:href="#c_7a2040fe3b94fcd41d0a72c84e93b115" x="63.623047"/>
<use xlink:href="#c_7a2040fe3b94fcd41d0a72c84e93b115" x="127.246094"/>
</g>
</g>
</g>
<g id="ytick3">
<g id="line2d21">
<g ><use style="fill: none; stroke: #000000; stroke-width: 0.500000; stroke-linejoin: round; stroke-linecap: butt;  opacity: 1.000000" xlink:href="#m3400efa6b1638b3fea9e19e898273957" x="180.000000" y="483.428571"/>
</g></g>
<g id="line2d22">
<g ><use style="fill: none; stroke: #000000; stroke-width: 0.500000; stroke-linejoin: round; stroke-linecap: butt;  opacity: 1.000000" xlink:href="#m20b58b2501143cb5e0a5e8f1ef6f1643" x="1296.000000" y="483.428571"/>
</g></g>
<g id="text11">
<g style="fill: #000000; opacity: 1.000000" transform="translate(154.750000,487.795759)scale(0.120000)">
<use xlink:href="#c_ed3f3ed3ebfbd18bcb9c012009a68ad1"/>
<use xlink:href="#c_7a2040fe3b94fcd41d0a72c84e93b115" x="63.623047"/>
<use xlink:href="#c_7a2040fe3b94fcd41d0a72c84e93b115" x="127.246094"/>
</g>
</g>
</g>
<g id="ytick4">
<g id="line2d23">
<g ><use style="fill: none; stroke: #000000; stroke-width: 0.500000; stroke-linejoin: round; stroke-linecap: butt;  opacity: 1.000000" xlink:href="#m3400efa6b1638b3fea9e19e898273957" x="180.000000" y="401.142857"/>
</g></g>
<g id="line2d24">
<g ><use style="fill: none; stroke: #000000; stroke-width: 0.500000; stroke-linejoin: round; stroke-linecap: butt;  opacity: 1.000000" xlink:href="#m20b58b2501143cb5e0a5e8f1ef6f1643" x="1296.000000" y="401.142857"/>
</g></g>
<g id="text12">
<g style="fill: #000000; opacity: 1.000000" transform="translate(154.796875,405.510045)scale(0.120000)">
<use xlink:href="#c_3dcfa38a02242cb63ec6726c6e70be7a"/>
<use xlink:href="#c_7a2040fe3b94fcd41d0a72c84e93b115" x="63.623047"/>
<use xlink:href="#c_7a2040fe3b94fcd41d0a72c84e93b115" x="127.246094"/>
</g>
</g>
</g>
<g id="ytick5">
<g id="line2d25">
<g ><use style="fill: none; stroke: #000000; stroke-width: 0.500000; stroke-linejoin: round; stroke-linecap: butt;  opacity: 1.000000" xlink:href="#m3400efa6b1638b3fea9e19e898273957" x="180.000000" y="318.857143"/>
</g></g>
<g id="line2d26">
<g ><use style="fill: none; stroke: #000000; stroke-width: 0.500000; stroke-linejoin: round; stroke-linecap: butt;  opacity: 1.000000" xlink:href="#m20b58b2501143cb5e0a5e8f1ef6f1643" x="1296.000000" y="318.857143"/>
</g></g>
<g id="text13">
<g style="fill: #000000; opacity: 1.000000" transform="translate(154.468750,323.224330)scale(0.120000)">
<use xlink:href="#c_a0416418d96557a09b8c1332d34883ba"/>
<use xlink:href="#c_7a2040fe3b94fcd41d0a72c84e93b115" x="63.623047"/>
<use xlink:href="#c_7a2040fe3b94fcd41d0a72c84e93b115" x="127.246094"/>
</g>
</g>
</g>
<g id="ytick6">
<g id="line2d27">
<g ><use style="fill: none; stroke: #000000; stroke-width: 0.500000; stroke-linejoin: round; stroke-linecap: butt;  opacity: 1.000000" xlink:href="#m3400efa6b1638b3fea9e19e898273957" x="180.000000" y="236.571429"/>
</g></g>
<g id="line2d28">
<g ><use style="fill: none; stroke: #000000; stroke-width: 0.500000; stroke-linejoin: round; stroke-linecap: butt;  opacity: 1.000000" xlink:href="#m20b58b2501143cb5e0a5e8f1ef6f1643" x="1296.000000" y="236.571429"/>
</g></g>
<g id="text14">
<g style="fill: #000000; opacity: 1.000000" transform="translate(154.796875,240.938616)scale(0.120000)">
<use xlink:href="#c_1260a2df50f305f3db244e29828f968e"/>
<use xlink:href="#c_7a2040fe3b94fcd41d0a72c84e93b115" x="63.623047"/>
<use xlink:href="#c_7a2040fe3b94fcd41d0a72c84e93b115" x="127.246094"/>
</g>
</g>
</g>
<g id="ytick7">
<g id="line2d29">
<g ><use style="fill: none; stroke: #000000; stroke-width: 0.500000; stroke-linejoin: round; stroke-linecap: butt;  opacity: 1.000000" xlink:href="#m3400efa6b1638b3fea9e19e898273957" x="180.000000" y="154.285714"/>
</g></g>
<g id="line2d30">
<g ><use style="fill: none; stroke: #000000; stroke-width: 0.500000; stroke-linejoin: round; stroke-linecap: butt;  opacity: 1.000000" xlink:href="#m20b58b2501143cb5e0a5e8f1ef6f1643" x="1296.000000" y="154.285714"/>
</g></g>
<g id="text15">
<g style="fill: #000000; opacity: 1.000000" transform="translate(154.718750,158.652902)scale(0.120000)">
<use xlink:href="#c_cc8d6d580d1b10c8632f7a42cd53db8a"/>
<use xlink:href="#c_7a2040fe3b94fcd41d0a72c84e93b115" x="63.623047"/>
<use xlink:href="#c_7a2040fe3b94fcd41d0a72c84e93b115" x="127.246094"/>
</g>
</g>
</g>
<g id="ytick8">
<g id="line2d31">
<g ><use style="fill: none; stroke: #000000; stroke-width: 0.500000; stroke-linejoin: round; stroke-linecap: butt;  opacity: 1.000000" xlink:href="#m3400efa6b1638b3fea9e19e898273957" x="180.000000" y="72.000000"/>
</g></g>
<g id="line2d32">
<g ><use style="fill: none; stroke: #000000; stroke-width: 0.500000; stroke-linejoin: round; stroke-linecap: butt;  opacity: 1.000000" xlink:href="#m20b58b2501143cb5e0a5e8f1ef6f1643" x="1296.000000" y="72.000000"/>
</g></g>
<g id="text16">
<defs>
<path id="c_956f18cfdaf972f35a6c2b4aaac2532b" d="M8.203125 -72.906250l46.875000 0.000000l0.000000 4.203125l-26.468750 68.703125l-10.296875 0.000000l24.906250 -64.593750l-35.015625 0.000000z"/>
</defs>
<g style="fill: #000000; opacity: 1.000000" transform="translate(154.859375,76.367188)scale(0.120000)">
<use xlink:href="#c_956f18cfdaf972f35a6c2b4aaac2532b"/>
<use xlink:href="#c_7a2040fe3b94fcd41d0a72c84e93b115" x="63.623047"/>
<use xlink:href="#c_7a2040fe3b94fcd41d0a72c84e93b115" x="127.246094"/>
</g>
</g>
</g>
<g id="text17">
<defs>
<path id="c_5cc9741494d2ad8f9764e03ae145569f" d="M48.687500 -27.296875q0.000000 -9.906250 -4.078125 -15.546875q-4.078125 -5.640625 -11.203125 -5.640625q-7.140625 0.000000 -11.218750 5.640625q-4.078125 5.640625 -4.078125 15.546875q0.000000 9.906250 4.078125 15.546875q4.078125 5.640625 11.218750 5.640625q7.125000 0.000000 11.203125 -5.640625q4.078125 -5.640625 4.078125 -15.546875M18.109375 -46.390625q2.843750 -4.875000 7.156250 -7.234375q4.328125 -2.375000 10.328125 -2.375000q9.968750 0.000000 16.187500 7.906250q6.234375 7.906250 6.234375 20.796875q0.000000 12.890625 -6.234375 20.812500q-6.218750 7.906250 -16.187500 7.906250q-6.000000 0.000000 -10.328125 -2.375000q-4.312500 -2.375000 -7.156250 -7.250000l0.000000 8.203125l-9.031250 0.000000l0.000000 -75.984375l9.031250 0.000000z"/>
<path id="c_5099edb83619131346ae654950954dea" d="M9.421875 -75.984375l8.984375 0.000000l0.000000 75.984375l-8.984375 0.000000z"/>
<path id="c_3b515ad41f960e225ec85275856806ca" d="M8.500000 -21.578125l0.000000 -33.109375l8.984375 0.000000l0.000000 32.765625q0.000000 7.765625 3.015625 11.656250q3.031250 3.875000 9.093750 3.875000q7.265625 0.000000 11.484375 -4.640625q4.234375 -4.640625 4.234375 -12.656250l0.000000 -31.000000l8.984375 0.000000l0.000000 54.687500l-8.984375 0.000000l0.000000 -8.406250q-3.265625 4.984375 -7.593750 7.406250q-4.312500 2.421875 -10.031250 2.421875q-9.421875 0.000000 -14.312500 -5.859375q-4.875000 -5.859375 -4.875000 -17.140625M31.109375 -56.000000z"/>
<path id="c_1e6263c731c474ef67a09469452f0b99" d="M11.718750 -12.406250l10.296875 0.000000l0.000000 12.406250l-10.296875 0.000000zM11.718750 -51.703125l10.296875 0.000000l0.000000 12.390625l-10.296875 0.000000z"/>
<path id="c_e3864de5dabf2f8dd9eee74726882ec1" d="M45.406250 -27.984375q0.000000 -9.765625 -4.031250 -15.125000q-4.015625 -5.375000 -11.296875 -5.375000q-7.218750 0.000000 -11.250000 5.375000q-4.031250 5.359375 -4.031250 15.125000q0.000000 9.718750 4.031250 15.093750q4.031250 5.375000 11.250000 5.375000q7.281250 0.000000 11.296875 -5.375000q4.031250 -5.375000 4.031250 -15.093750M54.390625 -6.781250q0.000000 13.953125 -6.203125 20.765625q-6.187500 6.812500 -18.984375 6.812500q-4.734375 0.000000 -8.937500 -0.703125q-4.203125 -0.703125 -8.156250 -2.171875l0.000000 -8.734375q3.953125 2.140625 7.812500 3.156250q3.859375 1.031250 7.859375 1.031250q8.843750 0.000000 13.234375 -4.609375q4.390625 -4.609375 4.390625 -13.937500l0.000000 -4.453125q-2.781250 4.843750 -7.125000 7.234375q-4.343750 2.390625 -10.406250 2.390625q-10.046875 0.000000 -16.203125 -7.656250q-6.156250 -7.671875 -6.156250 -20.328125q0.000000 -12.687500 6.156250 -20.343750q6.156250 -7.671875 16.203125 -7.671875q6.062500 0.000000 10.406250 2.390625q4.343750 2.390625 7.125000 7.218750l0.000000 -8.296875l8.984375 0.000000z"/>
<path id="c_7b26b13f539f13a4c64eef23b6952d29" d="M4.890625 -31.390625l26.312500 0.000000l0.000000 8.000000l-26.312500 0.000000z"/>
<path id="c_6ec8d5749226675394676a5d2a3b468b" d="M41.109375 -46.296875q-1.515625 -0.875000 -3.296875 -1.281250q-1.781250 -0.421875 -3.921875 -0.421875q-7.625000 0.000000 -11.703125 4.953125q-4.078125 4.953125 -4.078125 14.234375l0.000000 28.812500l-9.031250 0.000000l0.000000 -54.687500l9.031250 0.000000l0.000000 8.500000q2.843750 -4.984375 7.375000 -7.390625q4.546875 -2.421875 11.046875 -2.421875q0.921875 0.000000 2.046875 0.125000q1.125000 0.109375 2.484375 0.359375z"/>
<path id="c_7efa9804c2b4c09a4b614b91fdebee3d" d="M31.000000 -75.875000q-6.531250 11.218750 -9.718750 22.218750q-3.171875 10.984375 -3.171875 22.265625q0.000000 11.265625 3.203125 22.328125q3.203125 11.062500 9.687500 22.250000l-7.812500 0.000000q-7.312500 -11.484375 -10.953125 -22.562500q-3.640625 -11.078125 -3.640625 -22.015625q0.000000 -10.890625 3.609375 -21.921875q3.625000 -11.046875 10.984375 -22.562500z"/>
<path id="c_7aecf22c350a602b3f972fa102c17cac" d="M9.812500 -72.906250l9.859375 0.000000l0.000000 30.812500l32.718750 -30.812500l12.703125 0.000000l-36.187500 33.984375l38.765625 38.921875l-12.984375 0.000000l-35.015625 -35.109375l0.000000 35.109375l-9.859375 0.000000z"/>
<path id="c_9c6d5cbc59c6231647eb409cc6b37bb3" d="M25.390625 -72.906250l8.296875 0.000000l-25.390625 82.187500l-8.296875 0.000000z"/>
<path id="c_e96974be642f6eac0427d72f9cec6c19" d="M8.015625 -75.875000l7.812500 0.000000q7.312500 11.515625 10.953125 22.562500q3.640625 11.031250 3.640625 21.921875q0.000000 10.937500 -3.640625 22.015625q-3.640625 11.078125 -10.953125 22.562500l-7.812500 0.000000q6.484375 -11.187500 9.687500 -22.250000q3.203125 -11.062500 3.203125 -22.328125q0.000000 -11.281250 -3.203125 -22.265625q-3.203125 -11.000000 -9.687500 -22.218750"/>
</defs>
<g style="fill: #000000; opacity: 1.000000" transform="translate(149.468750,485.023438)rotate(-90.0)scale(0.120000)">
<use xlink:href="#c_5cc9741494d2ad8f9764e03ae145569f"/>
<use xlink:href="#c_5099edb83619131346ae654950954dea" x="63.476562"/>
<use xlink:href="#c_3b515ad41f960e225ec85275856806ca" x="91.259766"/>
<use xlink:href="#c_0bce5afba2dc6b9024b26277c38ad8e8" x="154.638672"/>
<use xlink:href="#c_d41d8cd98f00b204e9800998ecf8427e" x="216.162109"/>
<use xlink:href="#c_1e6263c731c474ef67a09469452f0b99" x="247.949219"/>
<use xlink:href="#c_d41d8cd98f00b204e9800998ecf8427e" x="281.640625"/>
<use xlink:href="#c_f05dd90d41f04bb96ef1ca503cc2044b" x="313.427734"/>
<use xlink:href="#c_3b515ad41f960e225ec85275856806ca" x="374.609375"/>
<use xlink:href="#c_0f8c41144cfbf448378cb6fd1cc8e549" x="437.988281"/>
<use xlink:href="#c_e3864de5dabf2f8dd9eee74726882ec1" x="477.197266"/>
<use xlink:href="#c_f05dd90d41f04bb96ef1ca503cc2044b" x="540.673828"/>
<use xlink:href="#c_6a63bda47b2f3da1cec6aadd80692cfe" x="601.855469"/>
<use xlink:href="#c_fe791a90f5471e2ab20a5ed41a7fa451" x="629.638672"/>
<use xlink:href="#c_e3864de5dabf2f8dd9eee74726882ec1" x="693.017578"/>
<use xlink:href="#c_d41d8cd98f00b204e9800998ecf8427e" x="756.494141"/>
<use xlink:href="#c_7b26b13f539f13a4c64eef23b6952d29" x="788.281250"/>
<use xlink:href="#c_d41d8cd98f00b204e9800998ecf8427e" x="824.365234"/>
<use xlink:href="#c_6ec8d5749226675394676a5d2a3b468b" x="856.152344"/>
<use xlink:href="#c_0bce5afba2dc6b9024b26277c38ad8e8" x="895.015625"/>
<use xlink:href="#c_d821beae607506e87470f334d9ff47af" x="956.539063"/>
<use xlink:href="#c_d41d8cd98f00b204e9800998ecf8427e" x="1020.015625"/>
<use xlink:href="#c_1e6263c731c474ef67a09469452f0b99" x="1051.802734"/>
<use xlink:href="#c_d41d8cd98f00b204e9800998ecf8427e" x="1085.494141"/>
<use xlink:href="#c_6a63bda47b2f3da1cec6aadd80692cfe" x="1117.281250"/>
<use xlink:href="#c_fe791a90f5471e2ab20a5ed41a7fa451" x="1145.064453"/>
<use xlink:href="#c_d650c37394b681142a10dfc54356d478" x="1208.443359"/>
<use xlink:href="#c_f05dd90d41f04bb96ef1ca503cc2044b" x="1263.423828"/>
<use xlink:href="#c_4653c6dfde66c7610eae0911760d3490" x="1324.605469"/>
<use xlink:href="#c_6a63bda47b2f3da1cec6aadd80692cfe" x="1422.017578"/>
<use xlink:href="#c_fe791a90f5471e2ab20a5ed41a7fa451" x="1449.800781"/>
<use xlink:href="#c_e3864de5dabf2f8dd9eee74726882ec1" x="1513.179688"/>
<use xlink:href="#c_d41d8cd98f00b204e9800998ecf8427e" x="1576.656250"/>
<use xlink:href="#c_7efa9804c2b4c09a4b614b91fdebee3d" x="1608.443359"/>
<use xlink:href="#c_6a63bda47b2f3da1cec6aadd80692cfe" x="1647.457031"/>
<use xlink:href="#c_fe791a90f5471e2ab20a5ed41a7fa451" x="1675.240234"/>
<use xlink:href="#c_d41d8cd98f00b204e9800998ecf8427e" x="1738.619141"/>
<use xlink:href="#c_7aecf22c350a602b3f972fa102c17cac" x="1770.406250"/>
<use xlink:href="#c_f05dd90d41f04bb96ef1ca503cc2044b" x="1830.982422"/>
<use xlink:href="#c_9c6d5cbc59c6231647eb409cc6b37bb3" x="1892.164063"/>
<use xlink:href="#c_8e0810ad13fe20a2a87a2619799b154d" x="1925.855469"/>
<use xlink:href="#c_0bce5afba2dc6b9024b26277c38ad8e8" x="1977.955078"/>
<use xlink:href="#c_d650c37394b681142a10dfc54356d478" x="2039.478516"/>
<use xlink:href="#c_e96974be642f6eac0427d72f9cec6c19" x="2094.458984"/>
</g>
</g>
</g>
<g id="patch3">
<path style="fill: none; stroke: #000000; stroke-width: 1.000000; stroke-linejoin: round; stroke-linecap: square;  opacity: 1.000000"  d="M180.000000 72.000000L1296.000000 72.000000"/>
</g>
<g id="patch4">
<path style="fill: none; stroke: #000000; stroke-width: 1.000000; stroke-linejoin: round; stroke-linecap: square;  opacity: 1.000000"  d="M1296.000000 648.000000L1296.000000 72.000000"/>
</g>
<g id="patch5">
<path style="fill: none; stroke: #000000; stroke-width: 1.000000; stroke-linejoin: round; stroke-linecap: square;  opacity: 1.000000"  d="M180.000000 648.000000L1296.000000 648.000000"/>
</g>
<g id="patch6">
<path style="fill: none; stroke: #000000; stroke-width: 1.000000; stroke-linejoin: round; stroke-linecap: square;  opacity: 1.000000"  d="M180.000000 648.000000L180.000000 72.000000"/>
</g>
<g id="text18">
<defs>
<path id="c_fabc000b0fb83f456ee9f092ad635e20" d="M9.812500 -72.906250l13.281250 0.000000l32.328125 60.984375l0.000000 -60.984375l9.562500 0.000000l0.000000 72.906250l-13.281250 0.000000l-32.312500 -60.984375l0.000000 60.984375l-9.578125 0.000000z"/>
<path id="c_57adaa7083d7229075db8bc2c5b2febe" d="M4.203125 -54.687500l8.984375 0.000000l11.234375 42.671875l11.171875 -42.671875l10.593750 0.000000l11.234375 42.671875l11.187500 -42.671875l8.984375 0.000000l-14.312500 54.687500l-10.593750 0.000000l-11.765625 -44.828125l-11.812500 44.828125l-10.609375 0.000000z"/>
<path id="c_dcb78ab3124be785176d70a27dde1356" d="M9.078125 -75.984375l9.031250 0.000000l0.000000 44.875000l26.812500 -23.578125l11.468750 0.000000l-29.000000 25.578125l30.234375 29.109375l-11.718750 0.000000l-27.796875 -26.703125l0.000000 26.703125l-9.031250 0.000000z"/>
<path id="c_f0b2f1db24a99c7a6a1fa56820ca5a8a" d="M8.687500 -72.906250l9.921875 0.000000l0.000000 44.296875q0.000000 11.718750 4.234375 16.875000q4.250000 5.140625 13.781250 5.140625q9.468750 0.000000 13.718750 -5.140625q4.250000 -5.156250 4.250000 -16.875000l0.000000 -44.296875l9.906250 0.000000l0.000000 45.515625q0.000000 14.250000 -7.062500 21.531250q-7.046875 7.281250 -20.812500 7.281250q-13.828125 0.000000 -20.890625 -7.281250q-7.046875 -7.281250 -7.046875 -21.531250z"/>
<path id="c_01d93a582460e35a7945ca50d148ffeb" d="M34.281250 -27.484375q-10.890625 0.000000 -15.093750 2.484375q-4.203125 2.484375 -4.203125 8.500000q0.000000 4.781250 3.156250 7.593750q3.156250 2.796875 8.562500 2.796875q7.484375 0.000000 12.000000 -5.296875q4.515625 -5.296875 4.515625 -14.078125l0.000000 -2.000000zM52.203125 -31.203125l0.000000 31.203125l-8.984375 0.000000l0.000000 -8.296875q-3.078125 4.968750 -7.671875 7.343750q-4.593750 2.375000 -11.234375 2.375000q-8.390625 0.000000 -13.359375 -4.718750q-4.953125 -4.718750 -4.953125 -12.625000q0.000000 -9.218750 6.171875 -13.906250q6.187500 -4.687500 18.437500 -4.687500l12.609375 0.000000l0.000000 -0.890625q0.000000 -6.203125 -4.078125 -9.593750q-4.078125 -3.390625 -11.453125 -3.390625q-4.687500 0.000000 -9.140625 1.125000q-4.437500 1.125000 -8.531250 3.375000l0.000000 -8.312500q4.921875 -1.906250 9.562500 -2.843750q4.640625 -0.953125 9.031250 -0.953125q11.875000 0.000000 17.734375 6.156250q5.859375 6.140625 5.859375 18.640625"/>
</defs>
<g style="fill: #000000; opacity: 1.000000" transform="translate(683.687500,64.093750)scale(0.144000)">
<use xlink:href="#c_fabc000b0fb83f456ee9f092ad635e20"/>
<use xlink:href="#c_0bce5afba2dc6b9024b26277c38ad8e8" x="74.804688"/>
<use xlink:href="#c_0f8c41144cfbf448378cb6fd1cc8e549" x="136.328125"/>
<use xlink:href="#c_57adaa7083d7229075db8bc2c5b2febe" x="175.537109"/>
<use xlink:href="#c_f05dd90d41f04bb96ef1ca503cc2044b" x="257.324219"/>
<use xlink:href="#c_6ec8d5749226675394676a5d2a3b468b" x="318.505859"/>
<use xlink:href="#c_dcb78ab3124be785176d70a27dde1356" x="359.619141"/>
<use xlink:href="#c_d41d8cd98f00b204e9800998ecf8427e" x="417.529297"/>
<use xlink:href="#c_f0b2f1db24a99c7a6a1fa56820ca5a8a" x="449.316406"/>
<use xlink:href="#c_8e0810ad13fe20a2a87a2619799b154d" x="522.509766"/>
<use xlink:href="#c_01d93a582460e35a7945ca50d148ffeb" x="574.609375"/>
<use xlink:href="#c_e3864de5dabf2f8dd9eee74726882ec1" x="635.888672"/>
<use xlink:href="#c_0bce5afba2dc6b9024b26277c38ad8e8" x="699.365234"/>
</g>
</g>
</g>
</g>
</svg>
